<?xml version="1.0" standalone="no"?>
<!DOCTYPE svg PUBLIC "-//W3C//DTD SVG 1.1//EN" "http://www.w3.org/Graphics/SVG/1.1/DTD/svg11.dtd" >
<!--
2013-9-30: Created.
-->
<svg>
<metadata>
Created by iconfont
</metadata>
<defs>

<font id="iconfont" horiz-adv-x="1024" >
  <font-face
    font-family="iconfont"
    font-weight="500"
    font-stretch="normal"
    units-per-em="1024"
    ascent="896"
    descent="-128"
  />
    <missing-glyph />
    
    <glyph glyph-name="times-circle" unicode="&#62169;" d="M512 880C238 880 16 658 16 384s222-496 496-496 496 222 496 496S786 880 512 880z m0-896c-221 0-400 179-400 400S291 784 512 784s400-179 400-400-179-400-400-400z m203.6 524.4L591.2 384l124.4-124.4c9.4-9.4 9.4-24.6 0-34l-45.2-45.2c-9.4-9.4-24.6-9.4-34 0L512 304.8l-124.4-124.4c-9.4-9.4-24.6-9.4-34 0l-45.2 45.2c-9.4 9.4-9.4 24.6 0 34l124.4 124.4-124.4 124.4c-9.4 9.4-9.4 24.6 0 34l45.2 45.2c9.4 9.4 24.6 9.4 34 0l124.4-124.4 124.4 124.4c9.4 9.4 24.6 9.4 34 0l45.2-45.2c9.4-9.4 9.4-24.6 0-34z"  horiz-adv-x="1024" />

    
    <glyph glyph-name="address-book" unicode="&#61202;" d="M936 576c13.2 0 24 10.8 24 24v80c0 13.2-10.8 24-24 24h-40V800c0 53-43 96-96 96H160C107 896 64 853 64 800v-832c0-53 43-96 96-96h640c53 0 96 43 96 96v96h40c13.2 0 24 10.8 24 24v80c0 13.2-10.8 24-24 24h-40v128h40c13.2 0 24 10.8 24 24v80c0 13.2-10.8 24-24 24h-40v128h40z m-456 64c70.6 0 128-57.4 128-128s-57.4-128-128-128-128 57.4-128 128 57.4 128 128 128z m224-473.6c0-21.2-20-38.4-44.8-38.4H300.8C276 128 256 145.2 256 166.4v38.4c0 63.6 60.2 115.2 134.4 115.2h10c24.6-10.2 51.4-16 79.6-16s55.2 5.8 79.6 16h10c74.2 0 134.4-51.6 134.4-115.2v-38.4z"  horiz-adv-x="1024" />

    
    <glyph glyph-name="adjust" unicode="&#61203;" d="M16 384c0-273.932 222.066-496 496-496s496 222.068 496 496S785.932 880 512 880 16 657.934 16 384z m496-368V752c203.41 0 368-164.622 368-368 0-203.41-164.622-368-368-368z"  horiz-adv-x="1024" />

    
    <glyph glyph-name="address-card" unicode="&#61204;" d="M1056 832H96C43 832 0 789 0 736v-704c0-53 43-96 96-96h960c53 0 96 43 96 96V736c0 53-43 96-96 96z m-704-192c70.6 0 128-57.4 128-128s-57.4-128-128-128-128 57.4-128 128 57.4 128 128 128z m224-473.6c0-21.2-20-38.4-44.8-38.4H172.8C148 128 128 145.2 128 166.4v38.4c0 63.6 60.2 115.2 134.4 115.2h10c24.6-10.2 51.4-16 79.6-16s55.2 5.8 79.6 16h10c74.2 0 134.4-51.6 134.4-115.2v-38.4zM1024 272c0-8.8-7.2-16-16-16H720c-8.8 0-16 7.2-16 16v32c0 8.8 7.2 16 16 16h288c8.8 0 16-7.2 16-16v-32z m0 128c0-8.8-7.2-16-16-16H720c-8.8 0-16 7.2-16 16v32c0 8.8 7.2 16 16 16h288c8.8 0 16-7.2 16-16v-32z m0 128c0-8.8-7.2-16-16-16H720c-8.8 0-16 7.2-16 16v32c0 8.8 7.2 16 16 16h288c8.8 0 16-7.2 16-16v-32z"  horiz-adv-x="1152" />

    
    <glyph glyph-name="align-center" unicode="&#61205;" d="M768 808v-80c0-17.674-14.326-32-32-32H288c-17.674 0-32 14.326-32 32V808c0 17.674 14.326 32 32 32h448c17.674 0 32-14.326 32-32zM96 440h832c17.674 0 32 14.326 32 32v80c0 17.674-14.326 32-32 32H96c-17.674 0-32-14.326-32-32v-80c0-17.674 14.326-32 32-32z m0-512h832c17.674 0 32 14.326 32 32v80c0 17.674-14.326 32-32 32H96c-17.674 0-32-14.326-32-32v-80c0-17.674 14.326-32 32-32z m640 400H288c-17.674 0-32-14.326-32-32v-80c0-17.674 14.326-32 32-32h448c17.674 0 32 14.326 32 32v80c0 17.674-14.326 32-32 32z"  horiz-adv-x="1024" />

    
    <glyph glyph-name="air-freshener" unicode="&#61206;" d="M885.88 253.18L697.4 448h98.44c30.6 0 47.32 33.2 27.72 55.06L596.9 756.08c6.86 13.22 11.1 28 11.1 43.92 0 53.02-42.98 96-96 96s-96-42.98-96-96c0-15.92 4.24-30.7 11.1-43.92L200.44 503.06C180.84 481.2 197.56 448 228.16 448H326.6L138.12 253.18C114.62 228.88 134.68 192 171.4 192H448v-64H224c-17.68 0-32-14.32-32-32v-192c0-17.68 14.32-32 32-32h576c17.68 0 32 14.32 32 32v192c0 17.68-14.32 32-32 32H576v64h276.6c36.72 0 56.78 36.88 33.28 61.18zM512 832.04c17.7 0 32.04-14.34 32.04-32.04 0-17.68-14.34-32.04-32.04-32.04S479.96 782.32 479.96 800c0 17.7 14.34 32.04 32.04 32.04zM736 32v-64H288v64h448z"  horiz-adv-x="1024" />

    
    <glyph glyph-name="align-justify" unicode="&#61207;" d="M64 728V808c0 17.674 14.326 32 32 32h832c17.674 0 32-14.326 32-32v-80c0-17.674-14.326-32-32-32H96c-17.674 0-32 14.326-32 32z m32-288h832c17.674 0 32 14.326 32 32v80c0 17.674-14.326 32-32 32H96c-17.674 0-32-14.326-32-32v-80c0-17.674 14.326-32 32-32z m0-512h832c17.674 0 32 14.326 32 32v80c0 17.674-14.326 32-32 32H96c-17.674 0-32-14.326-32-32v-80c0-17.674 14.326-32 32-32z m0 256h832c17.674 0 32 14.326 32 32v80c0 17.674-14.326 32-32 32H96c-17.674 0-32-14.326-32-32v-80c0-17.674 14.326-32 32-32z"  horiz-adv-x="1024" />

    
    <glyph glyph-name="align-left" unicode="&#61208;" d="M640 808v-80c0-17.674-14.326-32-32-32H96c-17.674 0-32 14.326-32 32V808c0 17.674 14.326 32 32 32h512c17.674 0 32-14.326 32-32zM64 552v-80c0-17.674 14.326-32 32-32h832c17.674 0 32 14.326 32 32v80c0 17.674-14.326 32-32 32H96c-17.674 0-32-14.326-32-32z m32-624h832c17.674 0 32 14.326 32 32v80c0 17.674-14.326 32-32 32H96c-17.674 0-32-14.326-32-32v-80c0-17.674 14.326-32 32-32z m512 400H96c-17.674 0-32-14.326-32-32v-80c0-17.674 14.326-32 32-32h512c17.674 0 32 14.326 32 32v80c0 17.674-14.326 32-32 32z"  horiz-adv-x="1024" />

    
    <glyph glyph-name="align-right" unicode="&#61209;" d="M384 728V808c0 17.674 14.326 32 32 32h512c17.674 0 32-14.326 32-32v-80c0-17.674-14.326-32-32-32H416c-17.674 0-32 14.326-32 32zM96 440h832c17.674 0 32 14.326 32 32v80c0 17.674-14.326 32-32 32H96c-17.674 0-32-14.326-32-32v-80c0-17.674 14.326-32 32-32z m0-512h832c17.674 0 32 14.326 32 32v80c0 17.674-14.326 32-32 32H96c-17.674 0-32-14.326-32-32v-80c0-17.674 14.326-32 32-32z m320 256h512c17.674 0 32 14.326 32 32v80c0 17.674-14.326 32-32 32H416c-17.674 0-32-14.326-32-32v-80c0-17.674 14.326-32 32-32z"  horiz-adv-x="1024" />

    
    <glyph glyph-name="ambulance" unicode="&#61210;" d="M1248 192h-32V408.2c0 25.4-10.2 49.8-28.2 67.8L988 675.8c-18 18-42.4 28.2-67.8 28.2H832V800c0 53-43 96-96 96H96C43 896 0 853 0 800v-640c0-53 43-96 96-96h32c0-106 86-192 192-192s192 86 192 192h256c0-106 86-192 192-192s192 86 192 192h96c17.6 0 32 14.4 32 32v64c0 17.6-14.4 32-32 32zM320-32c-53 0-96 43-96 96s43 96 96 96 96-43 96-96-43-96-96-96z m288 496c0-8.8-7.2-16-16-16h-112v-112c0-8.8-7.2-16-16-16h-96c-8.8 0-16 7.2-16 16v112h-112c-8.8 0-16 7.2-16 16v96c0 8.8 7.2 16 16 16h112v112c0 8.8 7.2 16 16 16h96c8.8 0 16-7.2 16-16v-112h112c8.8 0 16-7.2 16-16v-96z m352-496c-53 0-96 43-96 96s43 96 96 96 96-43 96-96-43-96-96-96z m160 416H832V608h88.2l199.8-199.8V384z"  horiz-adv-x="1280" />

    
    <glyph glyph-name="american-sign-langua" unicode="&#61211;" d="M581.09404 517.922c-40.59 20.298-88.294 22.398-129.478 7.78 85.212 0 142.416-40.95 171.156-101.152 17.152-35.798-10.296-76.142-47.234-76.142 36.858 0 64.422-40.272 47.234-76.142-29.45-61.692-92.246-101.708-160.596-101.708-1.114 0-188.942 17.23-188.942 17.23l-132.812-66.694c-18.768-9.386-39.63-0.758-47.79 15.562L3.72004 314.506c-8.334 17.23-2.222 37.794 13.892 47.242l116.144 66.138L216.00004 576.278c12.78 114.49 69.462 219.534 159.486 293.452 22.782 18.896 56.682 15.562 75.02-7.226 18.892-22.788 15.56-56.134-7.224-75.032-25.006-21.118-47.236-45.018-65.018-71.14 43.344 29.458 93.358 49.464 148.372 56.134 29.45 3.89 56.126-16.672 59.46-46.13 3.89-29.456-16.672-56.134-46.124-59.468-32.232-3.89-62.24-15.006-88.356-30.568 52.228 11.426 117.424 6.276 176.158-22.23 26.672-13.338 37.786-45.018 24.448-71.696-12.778-26.12-45.008-37.234-71.128-24.452z m-54.458-138.944c-12.224 25.01-36.676 40.572-64.462 40.572a70.92 70.92 0 0 1-71.13-71.14c0-42.856 35.616-71.14 71.13-71.14 27.786 0 52.238 15.562 64.462 40.572 8.892 18.898 27.228 30.012 46.678 30.568-19.45 0.554-37.786 11.67-46.678 30.568z m749.642 74.474c8.336-17.23 2.222-37.794-13.892-47.242l-116.142-66.138L1064.00004 191.68c-12.78-114.49-69.462-219.534-159.486-293.452-21.864-18.224-55.598-16.288-75.02 7.226-18.892 22.788-15.56 56.134 7.226 75.032 25.006 21.118 47.234 45.018 65.016 71.14-43.344-29.458-93.358-49.464-148.372-56.134-20.042-5.012-55.104 11.286-59.46 46.13-3.89 29.456 16.672 56.134 46.124 59.468 32.232 3.892 62.24 15.006 88.356 30.568-52.228-11.426-117.424-6.276-176.158 22.23-26.672 13.338-37.786 45.018-24.448 71.696 12.778 26.122 45.01 37.238 71.13 24.454 40.59-20.298 88.294-22.398 129.478-7.78-85.212 0-142.416 40.95-171.156 101.152-17.152 35.798 10.296 76.142 47.234 76.142-36.858 0-64.422 40.272-47.234 76.142 28.066 58.792 88.078 101.774 163.932 101.708l185.606-17.23 132.812 66.694c18.816 9.408 39.656 0.708 47.788-15.562l88.91-177.852z m-458.454 37.236c-27.786 0-52.238-15.562-64.462-40.572-8.892-18.898-27.228-30.012-46.678-30.568 19.45-0.556 37.786-11.672 46.678-30.568 12.224-25.01 36.676-40.572 64.462-40.572a70.92 70.92 0 0 1 71.13 71.14c0 42.858-35.616 71.14-71.13 71.14z"  horiz-adv-x="1280" />

    
    <glyph glyph-name="anchor" unicode="&#61212;" d="M25.942 192h64.788C134.344-13.47 363.888-128 576-128c212.458 0 441.706 114.76 485.27 320h64.788c21.382 0 32.09 25.852 16.97 40.97l-134.058 134.058c-9.372 9.372-24.568 9.372-33.942 0l-134.058-134.058c-15.12-15.12-4.412-40.97 16.97-40.97h70.292c-40.58-108.634-169.926-173.176-288.234-188.03V384h104c13.254 0 24 10.746 24 24v80c0 13.254-10.746 24-24 24h-104v10.94c74.562 26.356 127.99 97.45 128 181.036C768.01 808.456 683.21 894.524 578.74 895.98 471.446 897.478 384 810.95 384 704c0-83.596 53.432-154.7 128-181.06V512h-104c-13.254 0-24-10.746-24-24v-80c0-13.254 10.746-24 24-24h104v-380.03c-117.872 14.798-247.64 79.358-288.234 188.03h70.292c21.382 0 32.09 25.852 16.97 40.97l-134.058 134.058c-9.372 9.372-24.568 9.372-33.942 0L8.97 232.97C-6.148 217.852 4.56 192 25.942 192zM576 768c35.29 0 64-28.71 64-64s-28.71-64-64-64-64 28.71-64 64 28.71 64 64 64z"  horiz-adv-x="1152" />

    
    <glyph glyph-name="allergies" unicode="&#61213;" d="M895.837532 672.043741c-35.193126 0-63.987502-28.794376-63.987503-63.987502v-143.97188c0-8.798282-7.198594-15.996876-15.996875-15.996876h-31.993752c-8.798282 0-15.996876 7.198594-15.996875 15.996876V768.024995c0 35.193126-28.794376 63.987502-63.987503 63.987503s-63.987502-28.794376-63.987502-63.987503v-303.940636c0-8.798282-7.198594-15.996876-15.996876-15.996876h-31.993751c-8.798282 0-15.996876 7.198594-15.996875 15.996876V832.012498c0 35.193126-28.794376 63.987502-63.987503 63.987502s-63.987502-28.794376-63.987502-63.987502v-367.928139c0-8.798282-7.198594-15.996876-15.996876-15.996876h-31.993751c-8.798282 0-15.996876 7.198594-15.996876 15.996876V768.024995c0 35.193126-28.794376 63.987502-63.987502 63.987503S255.962507 803.218121 255.962507 768.024995v-481.905878l-47.190783 64.987308c-25.994923 35.793009-75.985159 43.591486-111.778168 17.596563s-43.591486-75.985159-17.596563-111.778169l251.150947-345.332552c17.996485-24.795157 46.990822-39.592267 77.584847-39.592267h395.122827c44.591291 0 83.183753 30.594025 93.381762 73.98555l52.98965 225.355985c6.39875 27.394649 9.798086 56.588947 10.198008 84.58348V608.056239c0 35.193126-28.794376 63.987502-63.987502 63.987502zM415.931263 64.162468c-17.596563 0-31.993751 14.397188-31.993751 31.993751s14.397188 31.993751 31.993751 31.993752 31.993751-14.397188 31.993752-31.993752-14.397188-31.993751-31.993752-31.993751z m0 191.962508c-17.596563 0-31.993751 14.397188-31.993751 31.993751s14.397188 31.993751 31.993751 31.993751 31.993751-14.397188 31.993752-31.993751-14.397188-31.993751-31.993752-31.993751z m127.975005-255.95001c-17.596563 0-31.993751 14.397188-31.993751 31.993751s14.397188 31.993751 31.993751 31.993751 31.993751-14.397188 31.993752-31.993751-14.397188-31.993751-31.993752-31.993751z m0 191.962507c-17.596563 0-31.993751 14.397188-31.993751 31.993751s14.397188 31.993751 31.993751 31.993752 31.993751-14.397188 31.993752-31.993752-14.397188-31.993751-31.993752-31.993751z m127.975005-63.987502c-17.596563 0-31.993751 14.397188-31.993751 31.993751s14.397188 31.993751 31.993751 31.993751 31.993751-14.397188 31.993751-31.993751-14.397188-31.993751-31.993751-31.993751z m63.987503-127.975005c-17.596563 0-31.993751 14.397188-31.993752 31.993751s14.397188 31.993751 31.993752 31.993751 31.993751-14.397188 31.993751-31.993751-14.397188-31.993751-31.993751-31.993751z m63.987502 255.95001c-17.596563 0-31.993751 14.397188-31.993751 31.993751s14.397188 31.993751 31.993751 31.993751 31.993751-14.397188 31.993751-31.993751-14.397188-31.993751-31.993751-31.993751z"  horiz-adv-x="1024" />

    
    <glyph glyph-name="angle-double-right" unicode="&#61214;" d="M512.6 350l-272-272c-18.8-18.8-49.2-18.8-67.8 0l-45.2 45.2c-18.8 18.8-18.8 49.2 0 67.8l192.8 192.8-192.8 192.8c-18.8 18.8-18.8 49.2 0 67.8L172.6 690c18.8 18.8 49.2 18.8 67.8 0l272-272c19-18.8 19-49.2 0.2-68z m384 68l-272 272c-18.8 18.8-49.2 18.8-67.8 0l-45.2-45.2c-18.8-18.8-18.8-49.2 0-67.8l192.8-192.8-192.8-192.8c-18.8-18.8-18.8-49.2 0-67.8l45.2-45.2c18.8-18.8 49.2-18.8 67.8 0l272 272c18.8 18.4 18.8 48.8 0 67.6z"  horiz-adv-x="1024" />

    
    <glyph glyph-name="angle-double-left" unicode="&#61215;" d="M511.4 418l272 272c18.8 18.8 49.2 18.8 67.8 0l45.2-45.2c18.8-18.8 18.8-49.2 0-67.8L703.8 384l192.8-192.8c18.8-18.8 18.8-49.2 0-67.8L851.4 78c-18.8-18.8-49.2-18.8-67.8 0l-272 272c-19 18.8-19 49.2-0.2 68z m-384-68l272-272c18.8-18.8 49.2-18.8 67.8 0l45.2 45.2c18.8 18.8 18.8 49.2 0 67.8L319.8 384l192.8 192.8c18.8 18.8 18.8 49.2 0 67.8L467.4 690c-18.8 18.8-49.2 18.8-67.8 0l-272-272c-19-18.8-19-49.2-0.2-68z"  horiz-adv-x="1024" />

    
    <glyph glyph-name="angle-double-up" unicode="&#61216;" d="M546 384.6l272-272c18.8-18.8 18.8-49.2 0-67.8l-45.2-45.2c-18.8-18.8-49.2-18.8-67.8 0L512 192.2l-192.8-192.8c-18.8-18.8-49.2-18.8-67.8 0L206 44.6c-18.8 18.8-18.8 49.2 0 67.8l272 272c18.8 19 49.2 19 68 0.2z m-68 384L206 496.6c-18.8-18.8-18.8-49.2 0-67.8l45.2-45.2c18.8-18.8 49.2-18.8 67.8 0l192.8 192.8 192.8-192.8c18.8-18.8 49.2-18.8 67.8 0l45.2 45.2c18.8 18.8 18.8 49.2 0 67.8l-272 272c-18.4 18.8-48.8 18.8-67.6 0z"  horiz-adv-x="1024" />

    
    <glyph glyph-name="angle-double-down" unicode="&#61217;" d="M478 383.4L206 655.4c-18.8 18.8-18.8 49.2 0 67.8l45.2 45.2c18.8 18.8 49.2 18.8 67.8 0l192.8-192.8 192.8 192.8c18.8 18.8 49.2 18.8 67.8 0L818 723.4c18.8-18.8 18.8-49.2 0-67.8l-272-272c-18.8-19-49.2-19-68-0.2z m68-384l272 272c18.8 18.8 18.8 49.2 0 67.8l-45.2 45.2c-18.8 18.8-49.2 18.8-67.8 0L512 191.8l-192.8 192.8c-18.8 18.8-49.2 18.8-67.8 0L206 339.4c-18.8-18.8-18.8-49.2 0-67.8l272-272c18.8-19 49.2-19 68-0.2z"  horiz-adv-x="1024" />

    
    <glyph glyph-name="angle-down" unicode="&#61218;" d="M478.05 191.4L206.05 463.4c-18.8 18.8-18.8 49.2 0 67.8l45.2 45.2c18.8 18.8 49.2 18.8 67.8 0l192.8-192.8 192.8 192.8c18.8 18.8 49.2 18.8 67.8 0l45.2-45.2c18.8-18.8 18.8-49.2 0-67.8l-272-272c-18.4-18.8-48.8-18.8-67.6 0z"  horiz-adv-x="1024" />

    
    <glyph glyph-name="angle-left" unicode="&#61219;" d="M319.4 418l272 272c18.8 18.8 49.2 18.8 67.8 0l45.2-45.2c18.8-18.8 18.8-49.2 0-67.8L511.8 384l192.8-192.8c18.8-18.8 18.8-49.2 0-67.8L659.4 78c-18.8-18.8-49.2-18.8-67.8 0l-272 272c-19 18.8-19 49.2-0.2 68z"  horiz-adv-x="1024" />

    
    <glyph glyph-name="angle-up" unicode="&#61220;" d="M546 576.6l272-272c18.8-18.8 18.8-49.2 0-67.8l-45.2-45.2c-18.8-18.8-49.2-18.8-67.8 0L512 384.2l-192.8-192.8c-18.8-18.8-49.2-18.8-67.8 0L206 236.6c-18.8 18.8-18.8 49.2 0 67.8l272 272c18.8 19 49.2 19 68 0.2z"  horiz-adv-x="1024" />

    
    <glyph glyph-name="angry" unicode="&#61221;" d="M512 880C238 880 16 658 16 384s222-496 496-496 496 222 496 496S786 880 512 880zM288 416c0 18.6 8.2 35 21 46.8l-62 18.6c-17 5-26.6 23-21.4 39.8 5 17 22.8 26.4 39.8 21.4l160-48c17-5 26.6-23 21.4-39.8-4.2-13.8-16.8-22.8-30.6-22.8-1 0-2.2 0.4-3.4 0.4 1.4-5.4 3.4-10.6 3.4-16.4 0-35.4-28.6-64-64-64S288 380.6 288 416z m336-308.4c-55.6 66.8-168.4 66.8-224.2 0-27-32.6-76.4 8.4-49.2 41 40 48 98.8 75.6 161.2 75.6s121.2-27.6 161.2-75.6c27.6-33-22.2-73.2-49-41z m153.2 373.8l-62-18.6c12.6-11.6 21-28.2 21-46.8 0-35.4-28.6-64-64-64s-64 28.6-64 64c0 5.8 1.8 11.2 3.4 16.4-1.2-0.2-2.2-0.4-3.4-0.4-13.8 0-26.4 9-30.6 22.8-5 17 4.6 34.8 21.4 39.8l160 48c16.8 5 34.8-4.6 39.8-21.4 5-17-4.6-34.8-21.6-39.8z"  horiz-adv-x="1024" />

    
    <glyph glyph-name="apple-alt" unicode="&#61222;" d="M766.360286 637.691012c-71.059166 12.499853-196.117698-28.719663-254.357015-61.619277-58.239316 32.899614-183.317848 74.13913-254.377014 61.619277-162.478093-28.599664-214.837478-248.977077-186.177814-411.195173C100.108106 64.277743 194.047004-128 384.824764-128c24.119717 0 48.239434 9.219892 68.879192 20.679757 36.159576 20.059765 80.459056 20.059765 116.618631 0 20.639758-11.459865 44.759475-20.679757 68.859191-20.679757 190.777761 0 284.716658 192.277743 313.356322 354.495839 28.659664 162.218096-23.659722 382.595509-186.177814 411.195173z m-111.098696 83.059025C716.380872 781.86932 702.701033 894.687995 702.701033 894.687995s-112.818676 13.699839-173.937958-47.439443c-61.139282-61.139282-47.439443-173.937958-47.439444-173.937958s112.798676-13.699839 173.937959 47.439443z"  horiz-adv-x="1024" />

    
    <glyph glyph-name="archive" unicode="&#61223;" d="M64 0c0-35.4 28.6-64 64-64h768c35.4 0 64 28.6 64 64V576H64v-576z m320 424c0 13.2 10.8 24 24 24h208c13.2 0 24-10.8 24-24v-16c0-13.2-10.8-24-24-24H408c-13.2 0-24 10.8-24 24v16zM960 832H64C28.6 832 0 803.4 0 768v-96c0-17.6 14.4-32 32-32h960c17.6 0 32 14.4 32 32V768c0 35.4-28.6 64-64 64z"  horiz-adv-x="1024" />

    
    <glyph glyph-name="archway" unicode="&#61224;" d="M1120 0h-32V704H64v-704H32.04c-17.68 0-32-14.32-32-32v-64c0-17.68 14.32-32 32-32H352c17.68 0 32 14.32 32 32V256c0 106.04 85.96 192 192 192s192-85.96 192-192l0.04-320v-32c0-17.68 14.32-32 32-32H1120c17.68 0 32 14.32 32 32v64c0 17.68-14.32 32-32 32z m0 896H32C14.32 896 0 881.68 0 864v-64c0-17.68 14.32-32 32-32h1088c17.68 0 32 14.32 32 32V864c0 17.68-14.32 32-32 32z"  horiz-adv-x="1152" />

    
    <glyph glyph-name="arrow-alt-circle-dow" unicode="&#61225;" d="M1008 384c0-274-222-496-496-496S16 110 16 384 238 880 512 880s496-222 496-496zM424 616v-232h-141.8c-21.4 0-32.2-26-17-41l229.8-228.6c9.4-9.4 24.4-9.4 33.8 0l229.8 228.6c15.2 15.2 4.4 41-17 41H600V616c0 13.2-10.8 24-24 24h-128c-13.2 0-24-10.8-24-24z"  horiz-adv-x="1024" />

    
    <glyph glyph-name="angle-right" unicode="&#61226;" d="M704.6 350l-272-272c-18.8-18.8-49.2-18.8-67.8 0l-45.2 45.2c-18.8 18.8-18.8 49.2 0 67.8l192.8 192.8-192.8 192.8c-18.8 18.8-18.8 49.2 0 67.8L364.6 690c18.8 18.8 49.2 18.8 67.8 0l272-272c19-18.8 19-49.2 0.2-68z"  horiz-adv-x="1024" />

    
    <glyph glyph-name="arrow-alt-circle-lef" unicode="&#61227;" d="M512-112C238-112 16 110 16 384S238 880 512 880s496-222 496-496-222-496-496-496z m232 584H512v141.8c0 21.4-26 32.2-41 17L242.4 401c-9.4-9.4-9.4-24.4 0-33.8l228.6-229.8c15.2-15.2 41-4.4 41 17V296h232c13.2 0 24 10.8 24 24v128c0 13.2-10.8 24-24 24z"  horiz-adv-x="1024" />

    
    <glyph glyph-name="arrow-alt-circle-rig" unicode="&#61228;" d="M512 880c274 0 496-222 496-496S786-112 512-112 16 110 16 384 238 880 512 880zM280 296h232v-141.8c0-21.4 26-32.2 41-17l228.6 229.8c9.4 9.4 9.4 24.4 0 33.8l-228.6 230c-15.2 15.2-41 4.4-41-17V472H280c-13.2 0-24-10.8-24-24v-128c0-13.2 10.8-24 24-24z"  horiz-adv-x="1024" />

    
    <glyph glyph-name="arrow-alt-circle-up" unicode="&#61229;" d="M16 384C16 658 238 880 512 880s496-222 496-496-222-496-496-496S16 110 16 384z m584-232V384h141.8c21.4 0 32.2 26 17 41L529 653.6c-9.4 9.4-24.4 9.4-33.8 0l-230-228.6c-15.2-15.2-4.4-41 17-41H424v-232c0-13.2 10.8-24 24-24h128c13.2 0 24 10.8 24 24z"  horiz-adv-x="1024" />

    
    <glyph glyph-name="arrow-circle-down" unicode="&#61230;" d="M1008 384c0-274-222-496-496-496S16 110 16 384 238 880 512 880s496-222 496-496z m-287.2 57.8L576 290.8V656c0 26.6-21.4 48-48 48h-32c-26.6 0-48-21.4-48-48v-365.2l-144.8 151c-18.6 19.4-49.6 19.8-68.6 0.8l-21.8-22c-18.8-18.8-18.8-49.2 0-67.8L478 87.4c18.8-18.8 49.2-18.8 67.8 0l265.4 265.4c18.8 18.8 18.8 49.2 0 67.8l-21.8 22c-19 19-50 18.6-68.6-0.8z"  horiz-adv-x="1024" />

    
    <glyph glyph-name="arrow-circle-left" unicode="&#61231;" d="M512-112C238-112 16 110 16 384S238 880 512 880s496-222 496-496-222-496-496-496z m57.8 287.2L418.8 320H784c26.6 0 48 21.4 48 48v32c0 26.6-21.4 48-48 48H418.8l151 144.8c19.4 18.6 19.8 49.6 0.8 68.6l-22 21.8c-18.8 18.8-49.2 18.8-67.8 0L215.4 418c-18.8-18.8-18.8-49.2 0-67.8l265.4-265.4c18.8-18.8 49.2-18.8 67.8 0l22 21.8c19 19 18.6 50-0.8 68.6z"  horiz-adv-x="1024" />

    
    <glyph glyph-name="arrow-circle-right" unicode="&#61232;" d="M512 880c274 0 496-222 496-496S786-112 512-112 16 110 16 384 238 880 512 880z m-57.8-287.2l151-144.8H240c-26.6 0-48-21.4-48-48v-32c0-26.6 21.4-48 48-48h365.2l-151-144.8c-19.4-18.6-19.8-49.6-0.8-68.6l22-21.8c18.8-18.8 49.2-18.8 67.8 0L808.6 350c18.8 18.8 18.8 49.2 0 67.8L543.2 683.4c-18.8 18.8-49.2 18.8-67.8 0l-22-21.8c-19-19.2-18.6-50.2 0.8-68.8z"  horiz-adv-x="1024" />

    
    <glyph glyph-name="arrow-circle-up" unicode="&#61233;" d="M16 384C16 658 238 880 512 880s496-222 496-496-222-496-496-496S16 110 16 384z m287.2-57.8l144.8 151V112c0-26.6 21.4-48 48-48h32c26.6 0 48 21.4 48 48V477.2l144.8-151c18.6-19.4 49.6-19.8 68.6-0.8l21.8 22c18.8 18.8 18.8 49.2 0 67.8L546 680.6c-18.8 18.8-49.2 18.8-67.8 0L212.6 415.2c-18.8-18.8-18.8-49.2 0-67.8l21.8-22c19.2-19 50.2-18.6 68.8 0.8z"  horiz-adv-x="1024" />

    
    <glyph glyph-name="arrow-down" unicode="&#61234;" d="M890.2 451l44.4-44.4c18.8-18.8 18.8-49.2 0-67.8L546-50c-18.8-18.8-49.2-18.8-67.8 0L89.4 338.8c-18.8 18.8-18.8 49.2 0 67.8l44.4 44.4c19 19 50 18.6 68.6-0.8L432 209.2V784c0 26.6 21.4 48 48 48h64c26.6 0 48-21.4 48-48v-574.8l229.6 241c18.6 19.6 49.6 20 68.6 0.8z"  horiz-adv-x="1024" />

    
    <glyph glyph-name="arrow-left" unicode="&#61235;" d="M579.05 5.8l-44.4-44.4c-18.8-18.8-49.2-18.8-67.8 0L78.05 350c-18.8 18.8-18.8 49.2 0 67.8L466.85 806.6c18.8 18.8 49.2 18.8 67.8 0l44.4-44.4c19-19 18.6-50-0.8-68.6L337.25 464H912.05c26.6 0 48-21.4 48-48v-64c0-26.6-21.4-48-48-48H337.25l241-229.6c19.6-18.6 20-49.6 0.8-68.6z"  horiz-adv-x="1024" />

    
    <glyph glyph-name="arrow-right" unicode="&#61236;" d="M444.95 762.2l44.4 44.4c18.8 18.8 49.2 18.8 67.8 0L945.95 418c18.8-18.8 18.8-49.2 0-67.8L557.15-38.6c-18.8-18.8-49.2-18.8-67.8 0l-44.4 44.4c-19 19-18.6 50 0.8 68.6L686.75 304H111.95c-26.6 0-48 21.4-48 48v64c0 26.6 21.4 48 48 48h574.8L445.75 693.6c-19.6 18.6-20 49.6-0.8 68.6z"  horiz-adv-x="1024" />

    
    <glyph glyph-name="arrows-alt" unicode="&#61237;" d="M704.401495 44.459979l-158.390143-158.390144c-18.74578-18.74578-49.135424-18.74578-67.881205 0l-158.390144 158.390144c-30.237646 30.237646-8.821897 81.94104 33.941602 81.93904h102.322801L456.002406 328.006656H254.396769v-102.322801c0-42.763499-51.701394-64.179248-81.94104-33.941602L14.065585 350.132397c-18.74578 18.74578-18.74578 49.137424 0 67.881204L172.455729 576.403745c30.237646 30.237646 81.94104 8.821897 81.94104-33.941602V440.005344H456.002406V641.610981h-102.458799c-42.763499 0-64.179248 51.701394-33.941602 81.94104l158.390144 158.390144c18.74578 18.74578 49.135424 18.74578 67.881204 0l158.390144-158.390144c30.237646-30.237646 8.821897-81.94104-33.941602-81.94104h-102.322801V440.005344h201.605637v102.322801c0 42.763499 51.701394 64.179248 81.93904 33.941602l158.390144-158.390144c18.74578-18.74578 18.74578-49.137424 0-67.881205L851.543771 191.608255c-30.237646-30.237646-81.94104-8.821897-81.93904 33.941602V328.006656H568.001094v-201.605637h102.458799c42.763499 0 64.179248-51.701394 33.941602-81.94104z"  horiz-adv-x="1024" />

    
    <glyph glyph-name="arrows-alt-h" unicode="&#61238;" d="M755.884 556.118V464H268.12v92.118c0 42.764-51.702 64.18-81.942 33.942L14.06 417.942c-18.746-18.746-18.746-49.136 0-67.882l172.118-172.118c30.238-30.238 81.942-8.822 81.942 33.942V304h487.764v-92.118c0-42.764 51.702-64.18 81.942-33.942l172.118 172.118c18.746 18.746 18.746 49.136 0 67.882l-172.118 172.118c-30.238 30.24-81.942 8.824-81.942-33.94z"  horiz-adv-x="1024" />

    
    <glyph glyph-name="arrows-alt-v" unicode="&#61239;" d="M684.116319 140.123382H591.999219V627.882618h92.1171c42.763582 0 64.179373 51.701495 33.941669 81.9412L545.941669 881.940137c-18.745817 18.745817-49.13552 18.745817-67.881338 0L305.944012 709.823818c-30.237705-30.237705-8.821914-81.9412 33.941669-81.9412H432.000781v-487.759236H339.883681c-42.763582 0-64.179373-51.701495-33.941669-81.9412l172.116319-172.116319c18.745817-18.745817 49.13552-18.745817 67.881338 0l172.116319 172.116319c30.239705 30.237705 8.823914 81.9412-33.939669 81.9412z"  horiz-adv-x="1024" />

    
    <glyph glyph-name="arrow-up" unicode="&#61240;" d="M133.8 317l-44.4 44.4c-18.8 18.8-18.8 49.2 0 67.8L478 818c18.8 18.8 49.2 18.8 67.8 0l388.6-388.6c18.8-18.8 18.8-49.2 0-67.8L890 317.2c-19-19-50-18.6-68.6 0.8L592 558.8V-16c0-26.6-21.4-48-48-48h-64c-26.6 0-48 21.4-48 48V558.8L202.4 317.8c-18.6-19.6-49.6-20-68.6-0.8z"  horiz-adv-x="1024" />

    
    <glyph glyph-name="assistive-listening-" unicode="&#61241;" d="M432 376c0-30.928-25.072-56-56-56s-56 25.072-56 56c0 88.224 71.776 160 160 160s160-71.776 160-160c0-30.928-25.072-56-56-56s-56 25.072-56 56c0 26.468-21.534 48-48 48s-48-21.532-48-48z m48 352c-194.094 0-352-157.906-352-352 0-30.928 25.072-56 56-56s56 25.072 56 56c0 132.336 107.664 240 240 240s240-107.664 240-240c0-150.328-142.018-140.622-143.994-287.244L576 88c0-57.346-46.654-104-104-104-30.928 0-56-25.072-56-56s25.072-56 56-56c118.95 0 215.752 96.656 216 215.548 1.19 68.856 144 96.48 144 288.452 0 194.094-157.906 352-352 352z m-160-472c-35.346 0-64-28.654-64-64s28.654-64 64-64 64 28.654 64 64-28.654 64-64 64zM64 0c-35.346 0-64-28.654-64-64s28.654-64 64-64 64 28.654 64 64-28.654 64-64 64z m960 375.986c0 3.036-0.024 6.05-0.09 9.062C1020.152 614.95 872.314 819.06 655.988 892.978c-29.266 9.996-61.098-5.618-71.1-34.884-10-29.266 5.62-61.098 34.884-71.1 171.812-58.708 289.22-221.026 292.154-403.906l0.006-0.376c0.052-2.236 0.066-4.472 0.066-6.726 0-30.928 25.072-56 56-56s56.002 25.072 56.002 56zM305.942 17.942l-160 160L78.06 110.06l160-160 67.882 67.882z"  horiz-adv-x="1024" />

    
    <glyph glyph-name="asterisk" unicode="&#61242;" d="M956.42 227.814L672 384l284.42 156.186c23.59 12.954 31.922 42.768 18.464 66.074l-38.96 67.482c-13.456 23.306-43.44 30.998-66.454 17.046L592 522.564l6.95 324.408C599.526 873.878 577.874 896 550.96 896h-77.92c-26.912 0-48.566-22.122-47.988-49.028L432 522.564 154.53 690.786c-23.012 13.952-52.998 6.26-66.454-17.046l-38.96-67.482c-13.456-23.306-5.124-53.12 18.466-66.074L352 384 67.58 227.814c-23.59-12.954-31.922-42.768-18.464-66.074l38.96-67.482c13.456-23.306 43.442-30.998 66.454-17.046L432 245.436l-6.95-324.408C424.474-105.878 446.128-128 473.04-128h77.922c26.912 0 48.566 22.122 47.99 49.028L592 245.436l277.47-168.222c23.012-13.952 52.998-6.26 66.454 17.046l38.96 67.482c13.456 23.306 5.126 53.118-18.464 66.072z"  horiz-adv-x="1024" />

    
    <glyph glyph-name="at" unicode="&#61243;" d="M512 880C237.882 880 16 658.162 16 384c0-274.118 221.838-496 496-496 96.308 0 190.684 28.28 270.816 80.446 24.01 15.63 29.25 48.576 11.104 70.744l-20.354 24.866c-15.342 18.742-42.358 23.334-62.746 10.258C651.84 36.486 582.628 16 512 16c-202.916 0-368 165.084-368 368S309.084 752 512 752c200.278 0 368-115.238 368-320 0-77.572-42.186-159.484-116.34-167.386-34.698 0.908-33.82 25.714-26.952 60.048l46.866 242.22C789.306 596.5 766.616 624 736.45 624h-89.962a27.036 27.036 0 0 1-26.864-23.986l-0.02-0.184c-29.394 35.802-80.896 43.55-119.942 43.55-149.16 0-275.662-124.468-275.662-302.92 0-130.606 73.57-211.74 192-211.74 53.968 0 114.738 31.274 149.982 76.666 19.044-68.208 81.226-68.206 141.42-68.206C925.218 137.18 1008 280.404 1008 432 1008 704.694 788.046 880 512 880z m-43.36-608.86c-44.498 0-72.14 31.246-72.14 81.542 0 89.986 61.558 145.458 117.26 145.458 44.584 0 71.202-30.482 71.202-81.54 0-90.122-67.75-145.46-116.322-145.46z"  horiz-adv-x="1024" />

    
    <glyph glyph-name="atlas" unicode="&#61244;" d="M700.76 480h-78.18c-2.98-54.06-13.08-102.7-28.42-140.82 55.42 26.48 96.04 78.38 106.6 140.82z m0 64c-10.58 62.44-51.18 114.34-106.6 140.82 15.36-38.12 25.44-86.76 28.42-140.82h78.18zM512 701.38c-15.38-14.9-41.54-68.84-46.86-157.38h93.74c-5.34 88.52-31.5 142.48-46.88 157.38z m-82.16-16.56c-55.42-26.48-96.04-78.38-106.6-140.82h78.18c2.98 54.06 13.06 102.7 28.42 140.82z m0-345.64c-15.36 38.12-25.44 86.76-28.42 140.82h-78.18c10.56-62.44 51.18-114.34 106.6-140.82zM558.86 480h-93.74c5.32-88.52 31.48-142.48 46.86-157.38 15.4 14.9 41.56 68.86 46.88 157.38zM960 179.2V844.8c0 32-19.2 51.2-51.2 51.2H256C147.2 896 64 812.8 64 704v-640c0-108.8 83.2-192 192-192h652.8c25.6 0 51.2 19.2 51.2 51.2v32c0 12.8-6.4 25.6-19.2 38.4-6.4 32-6.4 121.6 0 147.2 12.8 6.4 19.2 19.2 19.2 38.4zM512 768c141.38 0 256-114.62 256-256s-114.62-256-256-256S256 370.62 256 512 370.62 768 512 768z m320-768H256c-38.4 0-64 25.6-64 64s32 64 64 64h576v-128z"  horiz-adv-x="1024" />

    
    <glyph glyph-name="atom" unicode="&#61245;" d="M890.06 384c80.26 109.78 83.02 197.24 50.28 256-21.82 39.04-81.08 101.46-232.66 83.76C664.72 826.22 599.28 896 512 896s-152.72-69.78-195.68-172.24C164.86 741.32 105.46 679.04 83.66 640c-32.76-58.8-30-146.18 50.28-256-80.26-109.78-83.02-197.24-50.28-256 58.42-104.68 203.36-87.16 232.66-83.76C359.26-58.2 424.72-128 512-128s152.74 69.8 195.68 172.24c29.28-3.4 174.22-20.92 232.66 83.76 32.76 58.8 30 146.18-50.28 256zM190.76 192c-8.06 14.42-0.38 49.6 29.9 96.58 13.92-13.06 28.4-25.78 43.74-38.36 3.42-27.42 8-54.16 13.52-80.16-49.12-1.78-79.78 8.74-87.16 21.94z m73.64 325.76c-15.32-12.58-29.8-25.3-43.74-38.36-30.26 47-37.94 82.18-29.9 96.6 6.82 12.28 32.78 22.94 75.84 22.94 3.42 0 7.74-0.6 11.38-0.74a944.382 944.382 0 0 1-13.58-80.44zM512 768c18.94 0 44.4-27.04 67.72-74.52-22.38-7.4-44.88-16-67.72-25.72-22.84 9.72-45.34 18.32-67.72 25.72C467.6 740.96 493.06 768 512 768z m0-768c-18.94 0-44.4 27.04-67.72 74.52 22.38 7.4 44.88 16 67.72 25.72 22.84-9.72 45.34-18.32 67.72-25.72C556.4 27.04 530.94 0 512 0z m125 314.66c-53.4-38.16-92.28-58.66-125-74.96-32.7 16.28-71.6 36.82-125 74.96-3.98 55.58-3.98 83.08 0 138.66 53.34 38.1 92.26 58.64 125 74.96 32.78-16.34 71.72-36.88 125-74.96 3.96-55.56 3.98-83.06 0-138.66zM833.24 192c-7.34-13.24-38-23.64-87.16-21.9 5.52 26 10.1 52.74 13.52 80.12 15.32 12.58 29.8 25.3 43.74 38.36 30.26-46.98 37.94-82.16 29.9-96.58z m-29.9 287.42c-13.92 13.06-28.4 25.78-43.74 38.36a947.07 947.07 0 0 1-13.58 80.44c3.64 0.14 7.94 0.74 11.38 0.74 43.04 0 69.02-10.68 75.84-22.94 8.04-14.44 0.36-49.62-29.9-96.6zM512 448c-35.34 0-64-28.66-64-64s28.66-64 64-64 64 28.66 64 64-28.66 64-64 64z"  horiz-adv-x="1024" />

    
    <glyph glyph-name="award" unicode="&#61246;" d="M322.236144 170.738314c-17.379654 17.379654-8.319834 12.479752-50.239 23.699529-19.019621 5.099899-35.739289 14.899703-50.858988 26.63947L130.399962-1.39826c-8.779825-21.539571 7.619848-44.939106 30.859386-44.059123l105.377903 4.01992L339.115808-117.995939c15.999682-16.879664 44.079123-11.619769 52.858948 9.919802l104.097928 255.234921c-21.679569-12.07976-45.73909-19.159619-70.618594-19.159619-38.999224 0-75.638495 15.179698-103.217946 42.739149zM893.584773-1.39826l-90.738194 222.475573c-15.119699-11.759766-31.839366-21.539571-50.858988-26.63947-42.139161-11.279776-32.899345-6.359873-50.239-23.699529-27.579451-27.559452-64.238721-42.739149-103.237945-42.739149-24.879505 0-48.939026 7.099859-70.618595 19.159619L631.989979-108.076137c8.779825-21.539571 36.879266-26.799467 52.858948-9.919802l72.498558 76.558476 105.377902-4.01992c23.239537-0.879982 39.639211 22.539551 30.859386 44.059123zM653.989542 215.997414c30.559392 31.099381 34.059322 28.419434 77.578456 40.279198 27.779447 7.579849 49.499015 29.679409 56.938866 57.958846 14.959702 56.79887 11.079779 49.939006 51.898967 91.498179 20.339595 20.699588 28.279437 50.878987 20.839586 79.158425-14.939703 56.75887-14.959702 48.839028 0 105.657897 7.439852 28.279437-0.49999 58.458837-20.839586 79.158425-40.819188 41.559173-36.939265 34.719309-51.898967 91.498179-7.439852 28.279437-29.15942 50.378997-56.938866 57.958846-55.75889 15.219697-49.039024 11.239776-89.898211 52.818949-20.339595 20.699588-49.999005 28.799427-77.778452 21.219578-55.738891-15.199697-47.959046-15.219697-103.797934 0-27.779447 7.579849-57.438857-0.49999-77.778452-21.219578-40.819188-41.559173-34.099321-37.599252-89.878212-52.818949-27.779447-7.579849-49.499015-29.679409-56.938866-57.958846-14.939703-56.77887-11.079779-49.939006-51.898968-91.498179-20.339595-20.699588-28.299437-50.878987-20.839585-79.158425 14.939703-56.718871 14.959702-48.799029 0-105.637897-7.439852-28.279437 0.49999-58.458837 20.839585-79.178425 40.819188-41.559173 36.939265-34.699309 51.898968-91.498179 7.439852-28.279437 29.15942-50.378997 56.938866-57.958846C337.195847 244.076855 340.53578 245.996817 369.995194 215.997414c26.459473-26.939464 67.678653-31.759368 99.47802-11.639769a79.350421 79.350421 0 0 0 85.058307 0c31.779368-20.1196 72.998547-15.299696 99.458021 11.639769zM323.316123 544.070884c0 106.057889 84.478319 192.036178 188.676245 192.036178s188.676245-85.978289 188.676245-192.036178-84.478319-192.036178-188.676245-192.036178-188.676245 85.978289-188.676245 192.036178z"  horiz-adv-x="1024" />

    
    <glyph glyph-name="backspace" unicode="&#61247;" d="M1152.01 768H410.53A127.94 127.94 0 0 1 320.01 730.5L18.75 429.26c-25-25-25-65.52 0-90.5L320.01 37.5c24-24 56.56-37.5 90.5-37.5H1152.01c70.7 0 128 57.3 128 128V640c0 70.7-57.3 128-128 128z m-169.38-508.12c12.5-12.5 12.5-32.76 0-45.26l-45.24-45.24c-12.5-12.5-32.76-12.5-45.26 0L768.01 293.5l-124.12-124.12c-12.5-12.5-32.76-12.5-45.26 0l-45.24 45.24c-12.5 12.5-12.5 32.76 0 45.26L677.51 384l-124.12 124.12c-12.5 12.5-12.5 32.76 0 45.26l45.24 45.24c12.5 12.5 32.76 12.5 45.26 0L768.01 474.5l124.12 124.12c12.5 12.5 32.76 12.5 45.26 0l45.24-45.24c12.5-12.5 12.5-32.76 0-45.26L858.51 384l124.12-124.12z"  horiz-adv-x="1280" />

    
    <glyph glyph-name="backward" unicode="&#61248;" d="M23 334.8l384-320c41.2-34.4 105-5.6 105 49.2V704c0 54.8-63.8 83.6-105 49.2l-384-320c-30.6-25.6-30.6-72.8 0-98.4z m512 0l384-320c41.2-34.4 105-5.6 105 49.2V704c0 54.8-63.8 83.6-105 49.2l-384-320c-30.6-25.6-30.6-72.8 0-98.4z"  horiz-adv-x="1024" />

    
    <glyph glyph-name="audio-description" unicode="&#61249;" d="M325.85 418.582l17.644-61.31h-51.212l18.082 61.304c2.554 8.842 5.302 19.988 7.744 30.49 2.44-10.502 5.188-21.646 7.742-30.484z m332.948 64.198h-29.046v-197.562h29.046c59.552 0 92.35 35.356 92.35 99.552 0 64.478-34.98 98.01-92.35 98.01zM1024 672v-576c0-53.02-42.98-96-96-96H96c-53.02 0-96 42.98-96 96V672c0 53.02 42.98 96 96 96h832c53.02 0 96-42.98 96-96zM490.918 223.722l-114.194 336A24.002 24.002 0 0 1 354 576h-71.788a24.002 24.002 0 0 1-22.724-16.278l-114.194-336C140.006 208.156 151.578 192 168.018 192h58.266a24 24 0 0 1 23.07 17.386l17.148 59.812h102.734l17.586-59.954A24 24 0 0 1 409.852 192h58.344c16.44 0 28.012 16.156 22.722 31.722z m369.402 161.05c0 117.954-75.838 191.228-197.92 191.228h-114.732c-13.254 0-24-10.746-24-24v-336c0-13.254 10.746-24 24-24H662.4c122.082 0 197.92 73.866 197.92 192.772z"  horiz-adv-x="1024" />

    
    <glyph glyph-name="balance-scale" unicode="&#61250;" d="M512 224h-0.04c0 32.36 2.68 17.46-170.1 363.02-35.3 70.58-136.38 70.72-171.74 0C-4.12 238.5 0.04 255.34 0.04 224H0c0-88.36 114.62-160 256-160s256 71.64 256 160zM256 544l144-288H112l144 288z m1023.96-320c0 32.36 2.68 17.46-170.1 363.02-35.3 70.58-136.38 70.72-171.74 0-174.24-348.52-170.08-331.68-170.08-363.02H768c0-88.36 114.62-160 256-160s256 71.64 256 160h-0.04zM880 256l144 288 144-288H880z m176-256H704V589.5c47.02 20.58 82.32 62.96 92.78 114.5H1056c17.68 0 32 14.32 32 32V800c0 17.68-14.32 32-32 32H767.28C738.08 870.64 692.18 896 640 896s-98.08-25.36-127.28-64H224c-17.68 0-32-14.32-32-32v-64c0-17.68 14.32-32 32-32h259.22c10.46-51.52 45.74-93.92 92.78-114.5V0H224c-17.68 0-32-14.32-32-32v-64c0-17.68 14.32-32 32-32h832c17.68 0 32 14.32 32 32v64c0 17.68-14.32 32-32 32z"  horiz-adv-x="1280" />

    
    <glyph glyph-name="ban" unicode="&#61251;" d="M512 880C238.068 880 16 657.934 16 384s222.068-496 496-496 496 222.068 496 496S785.934 880 512 880z m260.216-235.784c130.896-130.896 140-330.962 41.354-471.274L300.94 685.568c140.408 98.712 340.452 89.47 471.276-41.352zM251.784 123.784c-130.896 130.896-140 330.962-41.354 471.274L723.06 82.432c-140.406-98.712-340.452-89.472-471.276 41.352z"  horiz-adv-x="1024" />

    
    <glyph glyph-name="band-aid" unicode="&#61252;" d="M0 576v-384c0-70.6 57.4-128 128-128h192V704H128c-70.6 0-128-57.4-128-128z m1152 128h-192v-640h192c70.6 0 128 57.4 128 128V576c0 70.6-57.4 128-128 128zM384 64h512V704H384v-640z m352 464c26.6 0 48-21.4 48-48s-21.4-48-48-48-48 21.4-48 48 21.4 48 48 48z m0-192c26.6 0 48-21.4 48-48s-21.4-48-48-48-48 21.4-48 48 21.4 48 48 48z m-192 192c26.6 0 48-21.4 48-48s-21.4-48-48-48-48 21.4-48 48 21.4 48 48 48z m0-192c26.6 0 48-21.4 48-48s-21.4-48-48-48-48 21.4-48 48 21.4 48 48 48z"  horiz-adv-x="1280" />

    
    <glyph glyph-name="barcode" unicode="&#61253;" d="M0 0V768h36v-768H0z m53.714 0.546V768H72v-767.454h-18.286z m54.286 0V768h17.714v-767.454H108z m89.714 0V768h17.714v-767.454h-17.714z m72 0V768h35.428v-767.454h-35.428z m89.714 0V768h17.714v-767.454h-17.714z m36 0V768h17.714v-767.454h-17.714z m36 0V768h17.714v-767.454h-17.714z m71.43 0V768h36v-767.454h-36z m89.714 0V768h36v-767.454h-36z m71.998 0V768h36.002v-767.454h-36.002z m72.002 0V768h36.002v-767.454h-36.002z m53.714 0V768h36v-767.454h-36z m90.286 0V768h53.714v-767.454h-53.714z m71.428 0V768h18.286v-767.454H952z m36-0.546V768h36v-768h-36z"  horiz-adv-x="1024" />

    
    <glyph glyph-name="bars" unicode="&#61254;" d="M96 632h832c17.674 0 32 14.326 32 32V744c0 17.674-14.326 32-32 32H96C78.326 776 64 761.674 64 744v-80c0-17.674 14.326-32 32-32z m0-320h832c17.674 0 32 14.326 32 32v80c0 17.674-14.326 32-32 32H96c-17.674 0-32-14.326-32-32v-80c0-17.674 14.326-32 32-32z m0-320h832c17.674 0 32 14.326 32 32v80c0 17.674-14.326 32-32 32H96c-17.674 0-32-14.326-32-32v-80c0-17.674 14.326-32 32-32z"  horiz-adv-x="1024" />

    
    <glyph glyph-name="baseball-ball" unicode="&#61255;" d="M753 168.2l57.6 27.8c22.2-45.8 52-86.4 88.2-121.8 68 85 109 192.6 109 309.8 0 117-40.8 224.4-108.4 309.2-35.6-34.6-65.2-74.2-87.2-119l-57.4 28.2c25.6 52 60 98 101.6 138C767.2 826.6 646 880 512 880 378.2 880 257 826.8 167.8 740.6c41.4-39.8 75.8-85.8 101.4-137.6l-57.4-28.2c-22 44.6-51.4 84.2-87 118.8C56.8 608.6 16 501.2 16 384c0-117.2 40.8-224.6 108.8-309.4 36.4 35.4 66.4 76 88.6 122l57.6-27.8c-25.8-53.4-60.6-100.6-103-141.4 89-86.2 210.2-139.4 344-139.4 133.6 0 254.6 53 343.8 139-42.2 40.8-77 87.8-102.8 141.2z m-456.6 64l-61 19.6c29.8 92.8 25.4 187.6-1.2 268l60.8 20c30-91.2 36-199.8 1.4-307.6z m432.6 306.8l60.8-20c-26.4-80.2-31-175-1.2-268l-61-19.6c-34.6 108-28.6 216.6 1.4 307.6z"  horiz-adv-x="1024" />

    
    <glyph glyph-name="bell" unicode="&#61256;" d="M512-128c70.64 0 127.94 57.3 127.94 128H384.06c0-70.7 57.3-128 127.94-128z m430.78 299.42c-38.64 41.52-110.94 103.98-110.94 308.58 0 155.4-108.96 279.8-255.88 310.32V832c0 35.34-28.64 64-63.96 64s-63.96-28.66-63.96-64v-41.68C301.12 759.8 192.16 635.4 192.16 480c0-204.6-72.3-267.06-110.94-308.58-12-12.9-17.32-28.32-17.22-43.42 0.22-32.8 25.96-64 64.2-64h767.6c38.24 0 64 31.2 64.2 64 0.1 15.1-5.22 30.54-17.22 43.42z"  horiz-adv-x="1024" />

    
    <glyph glyph-name="bell-slash" unicode="&#61257;" d="M1267.631681-20.193987l-181.23881 140.09908c0.379998 2.759982 1.59999 5.319965 1.599989 8.119947 0.099999 15.099901-5.219966 30.5398-17.219887 43.419715-38.639746 41.519728-110.939272 103.979318-110.939272 308.577975 0 155.39898-108.959285 279.798164-255.878321 310.317963V832.00042c0 35.339768-28.639812 63.99958-63.95958 63.99958s-63.95958-28.659812-63.95958-63.99958v-41.679726c-80.659471-16.75989-149.31902-62.139592-195.178719-125.139179L90.939403 889.260044C76.979495 900.099973 56.859627 897.59999 46.019698 883.640081L6.739956 833.100413C-4.099973 819.160504-1.59999 799.060636 12.359919 788.200707l1176.692278-909.454031c13.959908-10.859929 34.059776-8.339945 44.919705 5.619963l39.279742 50.539668c10.839929 13.939909 8.339945 34.039777-5.619963 44.899706zM314.457936 392.923301c-17.219887-135.919108-72.819522-186.658775-105.239309-221.498546-11.999921-12.899915-17.319886-28.319814-17.219887-43.419715 0.219999-32.799785 25.95983-63.99958 64.199579-63.99958h483.836825L314.457936 392.923301zM639.9958-127.99328c70.639536 0 127.93916 57.299624 127.93916 127.99916H512.05664c0-70.699536 57.299624-127.99916 127.93916-127.99916z"  horiz-adv-x="1279" />

    
    <glyph glyph-name="bezier-curve" unicode="&#61258;" d="M736 832h-192c-35.34 0-64-28.66-64-64v-192c0-35.34 28.66-64 64-64h192c35.34 0 64 28.66 64 64V768c0 35.34-28.66 64-64 64zM416 720h-169.5C227.5 766.88 181.68 800 128 800 57.32 800 0 742.7 0 672s57.32-128 128-128c53.68 0 99.5 33.12 118.5 80h159.46c-110.74-65.04-191.72-174.64-219.08-304h98.8c22.6 83.22 73.54 154.42 142.08 203.12-7.4 16.16-11.76 33.98-11.76 52.88V720z m-96-464H128c-35.34 0-64-28.66-64-64v-192c0-35.34 28.66-64 64-64h192c35.34 0 64 28.66 64 64v192c0 35.34-28.66 64-64 64zM1152 800c-53.68 0-99.5-33.12-118.5-80H864v-144c0-18.9-4.38-36.72-11.76-52.88 68.54-48.7 119.48-119.9 142.08-203.12h98.8c-27.36 129.36-108.34 238.96-219.08 304h159.46c19-46.88 64.82-80 118.5-80 70.68 0 128 57.3 128 128s-57.32 128-128 128z m0-544h-192c-35.34 0-64-28.66-64-64v-192c0-35.34 28.66-64 64-64h192c35.34 0 64 28.66 64 64v192c0 35.34-28.66 64-64 64z"  horiz-adv-x="1280" />

    
    <glyph glyph-name="binoculars" unicode="&#61259;" d="M832 800c0 17.68-14.32 32-32 32h-128c-17.68 0-32-14.32-32-32v-96h192V800zM127.82 576.02C122.8 388.32 6.92 347.56 0 88v-88c0-35.34 28.66-64 64-64h192c35.34 0 64 28.66 64 64V320h64V640H191.68c-35.26 0-62.9-28.74-63.86-63.98z m768.36 0c-0.96 35.24-28.6 63.98-63.86 63.98H640v-320h64v-320c0-35.34 28.66-64 64-64h192c35.34 0 64 28.66 64 64v88c-6.92 259.56-122.8 300.32-127.82 488.02zM352 832h-128c-17.68 0-32-14.32-32-32v-96h192V800c0 17.68-14.32 32-32 32z m96-512h128V640h-128v-320z"  horiz-adv-x="1024" />

    
    <glyph glyph-name="bicycle" unicode="&#61260;" d="M1025.02242 511.998c-32.746 0.128-64.06-5.91-92.872-16.99l-155.36 250.306A48 48 0 0 1 736.00642 768h-128c-17.674 0-32-14.326-32-32v-32c0-17.674 14.326-32 32-32h101.298l29.792-48H512.00842v32c0 17.674-14.326 32-32 32h-174.918c-26.882 0-49.554-21.998-49.072-48.874 0.464-26.088 21.752-47.126 47.99-47.126h97.452l-58.834-95.04c-26.866 9.66-55.808 14.966-85.984 15.04C116.19242 512.34 0.82842 397.976 0.00842 257.528-0.82158 115.442 114.11442 0 256.00842 0c119.284 0 219.516 81.586 247.934 192h104.066a48 48 0 0 1 40.812 22.734L820.74442 492.46l29.876-48.134c-50.91-46.896-82.77-114.162-82.614-188.874 0.29-137.666 115.798-254.102 253.458-255.438 141.212-1.37 256.362 111.606 258.51 251.992 2.172 141.882-113.052 259.44-254.952 259.992zM373.50442 364.456c19.454-21.058 33.346-47.322 39.284-76.456h-86.612l47.328 76.456zM256.00842 96c-88.224 0-160 71.776-160 160s71.776 160 160 160c11.738 0 23.172-1.306 34.198-3.718l-91.01-147.018C179.43442 233.346 202.43042 192 240.00842 192h162.6c-24.74-56.45-81.124-96-146.6-96z m325.26 192h-71.248c-7.92 63.512-39.112 119.788-84.766 160.052L474.74642 528h255.094l-148.572-240z m434.114-191.772c-82.072 4.33-148.098 71.384-151.254 153.51-1.624 42.242 13.266 81.036 38.67 110.526l88.866-143.172c9.32-15.016 29.048-19.632 44.064-10.312l27.188 16.874c15.016 9.32 19.634 29.048 10.312 44.064l-88.936 143.286a159.802 159.802 0 0 0 39.716 4.994c88.224 0 160-71.776 160-160-0.002-91.08-76.504-164.632-168.626-159.77z"  horiz-adv-x="1280" />

    
    <glyph glyph-name="blender" unicode="&#61261;" d="M832 128H320c-70.7 0-128-57.3-128-128v-64c0-35.34 28.66-64 64-64h640c35.34 0 64 28.66 64 64v64c0 70.7-57.3 128-128 128z m-256-192c-35.34 0-64 28.66-64 64s28.66 64 64 64 64-28.66 64-64-28.66-64-64-64z m80 832h333.08L1024 896H96C42.98 896 0 853.02 0 800v-320c0-53.02 42.98-96 96-96h206.54l17.46-192h512l34.92 128H656c-8.84 0-16 7.16-16 16v32c0 8.84 7.16 16 16 16h228.36l34.92 128H656c-8.84 0-16 7.16-16 16v32c0 8.84 7.16 16 16 16h280.72l34.92 128H656c-8.84 0-16 7.16-16 16V752c0 8.84 7.16 16 16 16zM128 512V768h139.64l23.28-256H128z"  horiz-adv-x="1024" />

    
    <glyph glyph-name="birthday-cake" unicode="&#61262;" d="M960 128c-56.04 0-62.52 64-149 64-86.86 0-93.65-64-149.5-64-55.39 0-62.908 64-149.5 64-85.684 0-94.436-64-149-64-56.296 0-62.404 64-149.5 64-87.094 0-93.306-64-149.5-64v160c0 53 43 96 96 96h32V672h128v-288h128V672h128v-288h128V672h128v-288h32c53 0 96-43 96-96v-160z m0-256H64v192c86.712 0 93.534 64 149.5 64 55.902 0 62.506-64 149.5-64 85.686 0 94.434 64 149 64 56.296 0 62.402-64 149.5-64 86.714 0 93.534 64 149.5 64 54.976 0 62.504-64 149-64v-192zM256 704c-35.5 0-64 28.5-64 64 0 62 64 46 64 128 24 0 64-59 64-112s-28.5-80-64-80z m256 0c-35.5 0-64 28.5-64 64 0 62 64 46 64 128 24 0 64-59 64-112s-28.5-80-64-80z m256 0c-35.5 0-64 28.5-64 64 0 62 64 46 64 128 24 0 64-59 64-112s-28.5-80-64-80z"  horiz-adv-x="1024" />

    
    <glyph glyph-name="blind" unicode="&#61263;" d="M888.29925-125.671965a15.999968 15.999968 0 0 0-21.977956 5.37399l-250.659501 412.853177a63.845873 63.845873 0 0 1 25.915949 18.969962l252.095498-415.215172a15.999968 15.999968 0 0 0-5.37399-21.981957zM413.606196 267.325252l-65.07987-178.969643 72.239856-176.569648c13.385973-32.719935 50.753899-48.383904 83.465833-35.001931 32.713935 13.383973 48.385904 50.751899 35.001931 83.467834l-125.62775 307.073388zM320.000382 720.000351c48.601903 0 87.999825 39.397922 87.999825 87.999824S368.602286 896 320.000382 896 232.000558 856.602078 232.000558 808.000175s39.397922-87.999825 87.999824-87.999824z m309.673384-338.255327l-239.999522 303.999395c-9.465981 11.989976-23.499953 18.215964-37.673925 18.223964V704.000382H288.000446v-0.051999c-14.291972-0.006-28.433943-6.321987-37.887924-18.479964L128.000765 528.468732v-191.387619c0-26.909946 22.021956-49.581901 48.927903-49.071902C203.010616 288.50521 224.000574 309.801168 224.000574 336.001116v159.531682l31.999936 41.141918v-281.39544L147.854725-42.108131c-12.079976-33.217934 5.05599-69.937861 38.275924-82.017837 33.203934-12.077976 69.935861 5.04799 82.017837 38.275924L400.000223 276.725234V491.118807l-62.811875 79.631841a7.999984 7.999984 0 1 0 12.537975 9.94198l204.599593-258.433485c18.289964-23.167954 48.735903-22.677955 67.415865-7.929984 20.819959 16.431967 24.317952 46.667907 7.931985 67.415865z"  horiz-adv-x="1024" />

    
    <glyph glyph-name="bold" unicode="&#61264;" d="M737.586 408.218c67.278 37.074 107.314 108.32 107.314 191.386 0 96.472-52.5 175.252-137.252 208.358C658.276 827.98 609.698 832 547.322 832H176c-17.674 0-32-14.326-32-32v-66.098c0-17.674 14.326-32 32-32h66.226v-637.06H176c-17.674 0-32-14.326-32-32V-32c0-17.674 14.326-32 32-32h391.38c48.406 0 89.668 2.578 133.732 15.168C803.04-18.386 880 74.706 880 195.972c0 104.336-53.146 183.368-142.414 212.246zM412.434 694.382h134.888c32.588 0 55.072-4.038 75.05-13.434 31.656-16.958 49.812-53.004 49.812-98.892 0-70.058-40.64-113.58-106.058-113.58h-153.692V694.382z m225.284-610.95c-20.28-8.112-45.354-9.814-62.818-9.814h-162.466V332.114h168.734c79.29 0 126.114-50.76 126.114-126.114 0.002-56.85-27.32-104.966-69.564-122.568z"  horiz-adv-x="1024" />

    
    <glyph glyph-name="bolt" unicode="&#61265;" d="M783.94001 576H553.13801L622.37401 835.632C630.49401 866.088 607.50601 896 575.99401 896H303.99401C279.93601 896 259.59401 878.19 256.41601 854.344l-63.992-480C188.58601 345.566 211.00201 320 240.00201 320h237.402L385.28601-68.932C378.09401-99.298 401.31201-128 431.97801-128c16.7 0 32.752 8.748 41.556 23.956l351.946 607.994c18.488 31.934-4.576 72.05-41.54 72.05z"  horiz-adv-x="1024" />

    
    <glyph glyph-name="bomb" unicode="&#61266;" d="M881 719l-104-104L830 562c18.8-18.8 18.8-49.2 0-67.8l-34.8-34.8c23.6-52.2 36.8-110.2 36.8-171.2 0-229.8-186.2-416-416-416S0 58.2 0 288 186.2 704 416 704c61 0 119-13.2 171.2-36.8L622 702c18.8 18.8 49.2 18.8 67.8 0l53-53 104 104 34.2-34zM1000 776h-48c-13.2 0-24-10.8-24-24s10.8-24 24-24h48c13.2 0 24 10.8 24 24s-10.8 24-24 24zM880 896c-13.2 0-24-10.8-24-24v-48c0-13.2 10.8-24 24-24s24 10.8 24 24V872c0 13.2-10.8 24-24 24z m67.8-110l34 34c9.4 9.4 9.4 24.6 0 34-9.4 9.4-24.6 9.4-34 0l-34-34c-9.4-9.4-9.4-24.6 0-34 9.6-9.4 24.8-9.4 34 0z m-135.6 0c9.4-9.4 24.6-9.4 34 0 9.4 9.4 9.4 24.6 0 34l-34 34c-9.4 9.4-24.6 9.4-34 0-9.4-9.4-9.4-24.6 0-34l34-34z m135.6-68c-9.4 9.4-24.6 9.4-34 0-9.4-9.4-9.4-24.6 0-34l34-34c9.4-9.4 24.6-9.4 34 0 9.4 9.4 9.4 24.6 0 34l-34 34zM224 352c0 70.6 57.4 128 128 128 17.6 0 32 14.4 32 32s-14.4 32-32 32c-105.8 0-192-86.2-192-192 0-17.6 14.4-32 32-32s32 14.4 32 32z"  horiz-adv-x="1024" />

    
    <glyph glyph-name="bone" unicode="&#61267;" d="M1197.76 406.88c50.4 25.2 82.24 76.72 82.24 133.06v15.28C1280 637.4 1213.4 704 1131.22 704c-64.04 0-120.88-40.98-141.14-101.72-15.36-46.06-23.2-90.28-76.22-90.28H366.12c-54.76 0-63.16 51.08-76.22 90.28C269.66 663.02 212.8 704 148.78 704 66.6 704 0 637.4 0 555.22v-15.28c0-56.34 31.84-107.86 82.24-133.06 18.86-9.42 18.86-36.34 0-45.76C31.84 335.92 0 284.4 0 228.06v-15.28C0 130.6 66.6 64 148.76 64c64.04 0 120.88 40.98 141.14 101.72 15.36 46.06 23.2 90.28 76.22 90.28h547.74c54.76 0 63.16-51.08 76.22-90.28C1010.34 104.98 1067.2 64 1131.22 64c82.16 0 148.76 66.6 148.76 148.78v15.28c0 56.36-31.84 107.86-82.24 133.06-18.84 9.42-18.84 36.34 0.02 45.76z"  horiz-adv-x="1280" />

    
    <glyph glyph-name="bong" unicode="&#61268;" d="M668.999997-128c46.359999 0 88.859998 25.16 111.999998 65.319999C813.379994-6.520002 831.999994 58.499996 831.999994 127.999995c0 72.239999-20.16 139.619997-54.879999 197.239996L863.999993 412.119989l18.76-18.759999c12.5-12.5 32.759999-12.5 45.259999 0l22.599999 22.639999c12.5 12.5 12.5 32.759999 0 45.259999l-105.379998 105.379998c-12.5 12.5-32.759999 12.5-45.259999 0l-22.619999-22.619999c-12.5-12.5-12.5-32.759999 0-45.259999l18.759999-18.76-78.819998-78.819998c-23.12 22.74-49.059999 42.659999-77.299998 59.019999V768.519982l31.939999 0.04c17.64 0.02 31.939999 14.32 31.959999 31.96l0.08 63.439999C703.999996 881.65998 689.639997 896.01998 671.939997 895.99998L224.060006 895.47998c-17.64-0.02-31.939999-14.32-31.96-31.959999l-0.08-63.459999c-0.02-17.7 14.34-32.039999 32.04-32.02L256.000005 768.079982v-307.859993C141.340007 393.79999 64.000009 270.059992 64.000009 127.999995c0-69.499999 18.62-134.539997 50.999999-190.679996C138.160007-102.84 180.660006-128 227.000006-128h441.999991zM304.120004 377.13999L352.000003 404.87999V768.179982l191.999996 0.22v-363.519992l47.879999-27.74c49.619999-28.739999 88.239998-71.459999 113.119998-121.139997h-513.99999c24.9 49.679999 63.499999 92.399998 113.119998 121.139997z"  horiz-adv-x="1024" />

    
    <glyph glyph-name="bookmark" unicode="&#61269;" d="M128-128V800C128 853.02 170.98 896 224 896h576c53.02 0 96-42.98 96-96v-928L512 96 128-128z"  horiz-adv-x="1024" />

    
    <glyph glyph-name="book-open" unicode="&#61270;" d="M1084.44 831.9c-109.6-6.22-327.44-28.86-461.92-111.18-9.28-5.68-14.54-15.78-14.54-26.34v-727.74c0-23.1 25.26-37.7 46.56-26.98 138.36 69.64 338.46 88.64 437.4 93.84 33.78 1.78 60.04 28.86 60.04 61.32V770.5c0.02 35.42-30.7 63.48-67.54 61.4zM529.46 720.72C395 803.04 177.16 825.66 67.56 831.9 30.72 833.98 0 805.92 0 770.5V94.8c0-32.48 26.26-59.56 60.04-61.32 98.98-5.2 299.18-24.22 437.54-93.9 21.24-10.7 46.42 3.88 46.42 26.92V694.74c0 10.58-5.24 20.28-14.54 25.98z"  horiz-adv-x="1152" />

    
    <glyph glyph-name="book-reader" unicode="&#61271;" d="M703.998185 704.000495c0 106.039727-85.959778 191.999505-191.999505 191.999505s-191.999505-85.959778-191.999505-191.999505 85.959778-191.999505 191.999505-191.999505 191.999505 85.959778 191.999505 191.999505zM467.178796 413.801243c-118.659694 72.639813-310.859199 92.599761-407.57895 98.099747C27.09993 513.740986 0 488.981049 0 457.72113v-445.598851c0-28.659926 23.17994-52.559864 52.979863-54.099861 87.319775-4.579988 263.979319-21.359945 386.079005-82.859786 18.739952-9.439976 40.959894 3.419991 40.959894 23.739939V390.881302c-0.02 9.339976-4.639988 17.899954-12.839966 22.919941z m497.218718 98.099747c-96.699751-5.479986-288.919255-25.459934-407.55895-98.099747-8.199979-5.019987-12.819967-13.919964-12.819967-23.25994v-491.578733c0-20.379947 22.279943-33.259914 41.079895-23.799938 122.079685 61.439842 298.63923 78.219798 385.939005 82.799786 29.799923 1.559996 52.979863 25.459934 52.979863 54.119861V457.72113c-0.02 31.259919-27.11993 56.019856-59.619846 54.17986z"  horiz-adv-x="1024" />

    
    <glyph glyph-name="bowling-ball" unicode="&#61272;" d="M512 880C238 880 16 658 16 384s222-496 496-496 496 222 496 496S786 880 512 880zM256 512c-35.4 0-64 28.6-64 64s28.6 64 64 64 64-28.6 64-64-28.6-64-64-64z m128 192c0 35.4 28.6 64 64 64s64-28.6 64-64-28.6-64-64-64-64 28.6-64 64z m96-288c-35.4 0-64 28.6-64 64s28.6 64 64 64 64-28.6 64-64-28.6-64-64-64z"  horiz-adv-x="1024" />

    
    <glyph glyph-name="boxes" unicode="&#61273;" d="M1120 320h-160v-192l-64 42.6-64-42.6v192h-160c-17.6 0-32-14.4-32-32v-384c0-17.6 14.4-32 32-32h448c17.6 0 32 14.4 32 32V288c0 17.6-14.4 32-32 32z m-768 128h448c17.6 0 32 14.4 32 32V864c0 17.6-14.4 32-32 32h-160v-192l-64 42.6L512 704V896h-160c-17.6 0-32-14.4-32-32v-384c0-17.6 14.4-32 32-32z m128-128h-160v-192l-64 42.6L192 128v192H32c-17.6 0-32-14.4-32-32v-384c0-17.6 14.4-32 32-32h448c17.6 0 32 14.4 32 32V288c0 17.6-14.4 32-32 32z"  horiz-adv-x="1152" />

    
    <glyph glyph-name="box-open" unicode="&#61274;" d="M106.48466 814L3.48466 608.4c-9.2-18.4 0.6-40.4 20.2-46l395.8-113c14.2-4 29.4 2 37 14.6L640.08466 768 139.68466 831.8c-13.8 1.6-27-5.4-33.2-17.8z m1170.2-205.6L1173.68466 814c-6.2 12.4-19.6 19.6-33.4 17.8L640.08466 768l183.4-304.2c7.6-12.6 22.8-18.6 37-14.6l395.8 113c19.8 5.8 29.4 27.8 20.4 46.2zM851.48466 384c-33.8 0-65.6 18-82.8 46.8L640.08466 644l-128.4-213.2c-17.4-29-49.2-47-83-47-9 0-18 1.2-26.6 3.8L128.08466 466v-356c0-29.4 20-55 48.4-62l432.4-108.2c20.4-5 41.8-5 62 0L1103.68466 48c28.4 7.2 48.4 32.8 48.4 62V466l-274-78.2c-8.6-2.6-17.6-3.8-26.6-3.8z"  horiz-adv-x="1280" />

    
    <glyph glyph-name="box" unicode="&#61275;" d="M1019 526.8L917.8 830.4C904.8 869.6 868.2 896 826.8 896H544v-384h477.4c-0.8 5-0.8 10-2.4 14.8zM480 896H197.2c-41.4 0-78-26.4-91-65.6L5 526.8c-1.6-4.8-1.6-9.8-2.4-14.8H480V896zM0 448v-480c0-53 43-96 96-96h832c53 0 96 43 96 96V448H0z"  horiz-adv-x="1024" />

    
    <glyph glyph-name="braille" unicode="&#61276;" d="M256 384c0-70.692-57.308-128-128-128S0 313.308 0 384s57.308 128 128 128 128-57.308 128-128zM128 128c-35.346 0-64-28.654-64-64s28.654-64 64-64 64 28.654 64 64-28.654 64-64 64z m0 704C57.308 832 0 774.692 0 704s57.308-128 128-128 128 57.308 128 128-57.308 128-128 128z m320-384c-35.346 0-64-28.654-64-64s28.654-64 64-64 64 28.654 64 64-28.654 64-64 64z m0-320c-35.346 0-64-28.654-64-64s28.654-64 64-64 64 28.654 64 64-28.654 64-64 64z m0 704c-70.692 0-128-57.308-128-128s57.308-128 128-128 128 57.308 128 128-57.308 128-128 128z m448-384c-35.346 0-64-28.654-64-64s28.654-64 64-64 64 28.654 64 64-28.654 64-64 64z m0-320c-35.346 0-64-28.654-64-64s28.654-64 64-64 64 28.654 64 64-28.654 64-64 64z m0 704c-70.692 0-128-57.308-128-128s57.308-128 128-128 128 57.308 128 128-57.308 128-128 128z m320-384c-35.346 0-64-28.654-64-64s28.654-64 64-64 64 28.654 64 64-28.654 64-64 64z m0-320c-35.346 0-64-28.654-64-64s28.654-64 64-64 64 28.654 64 64-28.654 64-64 64z m0 640c-35.346 0-64-28.654-64-64s28.654-64 64-64 64 28.654 64 64-28.654 64-64 64z"  horiz-adv-x="1280" />

    
    <glyph glyph-name="brain" unicode="&#61277;" d="M416 896c-59.74 0-109.48-41.1-123.6-96.44-1.5 0.04-2.9 0.44-4.4 0.44-70.68 0-128-57.3-128-128 0-9.68 1.28-19.02 3.32-28.08C105.08 620 64 562.86 64 496c0-25.16 6.32-48.64 16.68-69.82C32.68 398.56 0 347.34 0 288c0-66.68 40.84-123.76 98.84-147.78-1.8-9.14-2.84-18.56-2.84-28.22 0-79.52 64.46-144 144-144 8.24 0 16.2 1.1 24.06 2.42C283.22-86.62 336.5-128 400-128c79.54 0 144 64.48 144 144V485.1c-21.82-17.96-47.96-30.9-76.72-36.78-9.94-2.04-19.28 5.64-19.28 15.78v32.36c0 7.14 4.7 13.56 11.6 15.32 48.4 12.32 84.4 55.9 84.4 108.08V768c0 70.7-57.32 128-128 128z m736-608c0 59.34-32.68 110.56-80.68 138.18 10.34 21.18 16.68 44.66 16.68 69.82 0 66.86-41.08 124-99.32 147.92 2.04 9.06 3.32 18.4 3.32 28.08 0 70.7-57.32 128-128 128-1.5 0-2.9-0.4-4.4-0.44C845.48 854.9 795.74 896 736 896c-70.68 0-128-57.3-128-128v-148.14c0-52.18 35.98-95.76 84.4-108.08 6.92-1.76 11.6-8.18 11.6-15.32v-32.36c0-10.14-9.36-17.82-19.28-15.78-28.76 5.88-54.88 18.82-76.72 36.78V16c0-79.52 64.46-144 144-144 63.5 0 116.78 41.38 135.94 98.42 7.86-1.34 15.82-2.42 24.06-2.42 79.54 0 144 64.48 144 144 0 9.66-1.04 19.08-2.84 28.22 58 24.02 98.84 81.1 98.84 147.78z"  horiz-adv-x="1152" />

    
    <glyph glyph-name="briefcase" unicode="&#61278;" d="M640 320h384v-288c0-53.02-42.98-96-96-96H96c-53.02 0-96 42.98-96 96V320h384v-40c0-13.254 10.746-24 24-24h208c13.254 0 24 10.746 24 24v40z m384 224v-160H0v160c0 53.02 42.98 96 96 96h160V736c0 53.02 42.98 96 96 96h320c53.02 0 96-42.98 96-96v-96h160c53.02 0 96-42.98 96-96zM640 704H384v-64h256V704z"  horiz-adv-x="1024" />

    
    <glyph glyph-name="caret-right" unicode="&#61279;" d="M320 126.676V641.324c0 35.636 43.086 53.482 68.284 28.284l257.324-257.324c15.62-15.62 15.62-40.948 0-56.568L388.284 98.392C363.086 73.192 320 91.04 320 126.676z"  horiz-adv-x="1024" />

    
    <glyph glyph-name="caret-down" unicode="&#61280;" d="M254.6 512h514.6c35.6 0 53.4-43 28.2-68.2L540.2 186.4c-15.6-15.6-41-15.6-56.6 0L226.4 443.8C201.2 469 219 512 254.6 512z"  horiz-adv-x="1024" />

    
    <glyph glyph-name="caret-left" unicode="&#61281;" d="M704 641.324v-514.648c0-35.636-43.086-53.482-68.284-28.284L378.392 355.716c-15.62 15.62-15.62 40.948 0 56.568l257.324 257.324c25.198 25.2 68.284 7.352 68.284-28.284z"  horiz-adv-x="1024" />

    
    <glyph glyph-name="caret-square-left" unicode="&#61282;" d="M864-64H160c-53.02 0-96 42.98-96 96V736c0 53.02 42.98 96 96 96h704c53.02 0 96-42.98 96-96v-704c0-53.02-42.98-96-96-96zM583.03 647.03l-246.06-246.06c-9.372-9.372-9.372-24.568 0-33.942l246.058-246.058c15.12-15.12 40.97-4.412 40.97 16.97V630.058c0.002 21.382-25.85 32.09-40.968 16.972z"  horiz-adv-x="1024" />

    
    <glyph glyph-name="caret-square-right" unicode="&#61283;" d="M160 832h704c53.02 0 96-42.98 96-96v-704c0-53.02-42.98-96-96-96H160c-53.02 0-96 42.98-96 96V736c0 53.02 42.98 96 96 96z m280.97-711.03l246.058 246.058c9.372 9.372 9.372 24.568 0 33.942l-246.058 246.06c-15.12 15.12-40.97 4.412-40.97-16.97v-492.118c0-21.382 25.852-32.09 40.97-16.972z"  horiz-adv-x="1024" />

    
    <glyph glyph-name="caret-square-up" unicode="&#61284;" d="M64 32V736c0 53.02 42.98 96 96 96h704c53.02 0 96-42.98 96-96v-704c0-53.02-42.98-96-96-96H160c-53.02 0-96 42.98-96 96z m711.03 280.97l-246.06 246.06c-9.372 9.372-24.568 9.372-33.942 0L248.97 312.97c-15.12-15.12-4.412-40.97 16.97-40.97h492.118c21.382 0 32.09 25.852 16.972 40.97z"  horiz-adv-x="1024" />

    
    <glyph glyph-name="caret-up" unicode="&#61285;" d="M769.324 192H254.676c-35.636 0-53.482 43.086-28.284 68.284l257.324 257.324c15.62 15.62 40.948 15.62 56.568 0l257.324-257.324c25.2-25.198 7.352-68.284-28.284-68.284z"  horiz-adv-x="1024" />

    
    <glyph glyph-name="check" unicode="&#61286;" d="M347.796 17.192l-332.8 332.8c-19.994 19.994-19.994 52.412 0 72.408l72.406 72.408c19.994 19.996 52.414 19.996 72.408 0L384 270.62 864.19 750.808c19.994 19.994 52.414 19.994 72.408 0l72.406-72.408c19.994-19.994 19.994-52.412 0-72.408l-588.8-588.802c-19.996-19.994-52.414-19.994-72.408 0.002z"  horiz-adv-x="1024" />

    
    <glyph glyph-name="check-square" unicode="&#61289;" d="M864-64H160c-53.02 0-96 42.98-96 96V736c0 53.02 42.98 96 96 96h704c53.02 0 96-42.98 96-96v-704c0-53.02-42.98-96-96-96z m-409.372 196.118l368 368c12.496 12.496 12.496 32.758 0 45.254l-45.254 45.254c-12.496 12.496-32.758 12.498-45.256 0L432 290.51l-140.118 140.118c-12.496 12.496-32.758 12.496-45.256 0l-45.254-45.254c-12.496-12.496-12.496-32.758 0-45.254l208-208c12.498-12.5 32.758-12.5 45.256-0.002z"  horiz-adv-x="1024" />

    
    <glyph glyph-name="chevron-down" unicode="&#61293;" d="M478.058 133.048L89.372 521.736c-18.746 18.746-18.746 49.138 0 67.882l45.334 45.334c18.714 18.714 49.044 18.75 67.802 0.08L512 326.99l309.49 308.042c18.758 18.67 49.088 18.634 67.802-0.08l45.334-45.334c18.746-18.746 18.746-49.138 0-67.882L545.942 133.048c-18.746-18.744-49.138-18.744-67.884 0z"  horiz-adv-x="1024" />

    
    <glyph glyph-name="chevron-left" unicode="&#61294;" d="M261.04 417.94L649.74 806.62c18.74 18.74 49.14 18.74 67.88 0l45.34-45.34c18.72-18.72 18.74-49.04 0.08-67.8L454.98 384l308.04-309.5c18.68-18.76 18.64-49.08-0.08-67.8l-45.34-45.34c-18.74-18.74-49.14-18.74-67.88 0L261.04 350.06c-18.74 18.74-18.74 49.14 0 67.88z"  horiz-adv-x="1024" />

    
    <glyph glyph-name="chevron-right" unicode="&#61295;" d="M762.952 350.058L374.264-38.628c-18.746-18.746-49.138-18.746-67.882 0l-45.334 45.334c-18.714 18.714-18.75 49.044-0.08 67.802L569.01 384 260.968 693.49c-18.67 18.758-18.634 49.088 0.08 67.802l45.334 45.334c18.746 18.746 49.138 18.746 67.882 0L762.95 417.94c18.746-18.744 18.746-49.136 0.002-67.882z"  horiz-adv-x="1024" />

    
    <glyph glyph-name="chevron-up" unicode="&#61296;" d="M545.942 634.952l388.686-388.686c18.746-18.746 18.746-49.138 0-67.882l-45.334-45.334c-18.714-18.714-49.044-18.75-67.802-0.08L512 441.01 202.51 132.968c-18.758-18.67-49.088-18.634-67.802 0.08l-45.334 45.334c-18.746 18.746-18.746 49.138 0 67.882L478.06 634.95c18.744 18.746 49.136 18.746 67.882 0.002z"  horiz-adv-x="1024" />

    
    <glyph glyph-name="cloud-download-alt" unicode="&#61303;" d="M1075.2 442.8c8.2 21.4 12.8 44.8 12.8 69.2 0 106-86 192-192 192-39.4 0-76.2-12-106.6-32.4C734 767.6 630.6 832 512 832c-176.8 0-320-143.2-320-320 0-5.4 0.2-10.8 0.4-16.2C80.4 456.4 0 349.6 0 224c0-159 129-288 288-288h736c141.4 0 256 114.6 256 256 0 123.8-88 227.2-204.8 250.8z m-265.8-177.4L598.6 54.6c-12.4-12.4-32.8-12.4-45.2 0L342.6 265.4c-20.2 20.2-5.8 54.6 22.6 54.6H496V544c0 17.6 14.4 32 32 32h96c17.6 0 32-14.4 32-32v-224h130.8c28.4 0 42.8-34.4 22.6-54.6z"  horiz-adv-x="1280" />

    
    <glyph glyph-name="cloud-upload-alt" unicode="&#61304;" d="M1075.2 442.8c8.2 21.4 12.8 44.8 12.8 69.2 0 106-86 192-192 192-39.4 0-76.2-12-106.6-32.4C734 767.6 630.6 832 512 832c-176.8 0-320-143.2-320-320 0-5.4 0.2-10.8 0.4-16.2C80.4 456.4 0 349.6 0 224c0-159 129-288 288-288h736c141.4 0 256 114.6 256 256 0 123.8-88 227.2-204.8 250.8zM786.8 320H656v-224c0-17.6-14.4-32-32-32h-96c-17.6 0-32 14.4-32 32V320h-130.8c-28.6 0-42.8 34.4-22.6 54.6l210.8 210.8c12.4 12.4 32.8 12.4 45.2 0l210.8-210.8c20.2-20.2 5.8-54.6-22.6-54.6z"  horiz-adv-x="1280" />

    
    <glyph glyph-name="cog" unicode="&#61309;" d="M889.576 313.8l85.232-49.198c9.734-5.618 14.252-17.236 10.918-27.97-22.14-71.284-59.94-135.684-109.378-189.172a24.032 24.032 0 0 0-29.664-4.508l-85.168 49.19a383.154 383.154 0 0 0-121.518-70.26v-98.364a24.02 24.02 0 0 0-18.754-23.436c-69.912-15.7-144.998-16.512-218.438-0.014-10.98 2.466-18.806 12.192-18.806 23.446v98.368a383.11 383.11 0 0 0-121.518 70.26l-85.168-49.19a24.032 24.032 0 0 0-29.664 4.508c-49.436 53.488-87.238 117.888-109.378 189.172-3.334 10.732 1.184 22.35 10.918 27.97L134.424 313.8a386.96 386.96 0 0 0 0 140.398l-85.232 49.198c-9.734 5.618-14.252 17.236-10.918 27.97 22.14 71.284 59.94 135.684 109.378 189.172a24.032 24.032 0 0 0 29.664 4.508l85.168-49.19a383.154 383.154 0 0 0 121.518 70.26V844.482a24.02 24.02 0 0 0 18.754 23.436c69.912 15.7 144.998 16.512 218.438 0.014 10.98-2.466 18.806-12.192 18.806-23.446v-98.368a383.11 383.11 0 0 0 121.518-70.26l85.168 49.19a24.032 24.032 0 0 0 29.664-4.508c49.436-53.488 87.238-117.888 109.378-189.172 3.334-10.732-1.184-22.35-10.918-27.97L889.576 454.2a386.97 386.97 0 0 0 0-140.4zM672 384c0 88.224-71.776 160-160 160s-160-71.776-160-160 71.776-160 160-160 160 71.776 160 160z"  horiz-adv-x="1024" />

    
    <glyph glyph-name="comment-dots" unicode="&#61310;" d="M512 832C229.2 832 0 645.8 0 416c0-99.2 42.8-190 114-261.4C89 53.8 5.4-36 4.4-37c-4.4-4.6-5.6-11.4-3-17.4S9.6-64 16-64c132.6 0 232 63.6 281.2 102.8 65.4-24.6 138-38.8 214.8-38.8 282.8 0 512 186.2 512 416S794.8 832 512 832zM256 352c-35.4 0-64 28.6-64 64s28.6 64 64 64 64-28.6 64-64-28.6-64-64-64z m256 0c-35.4 0-64 28.6-64 64s28.6 64 64 64 64-28.6 64-64-28.6-64-64-64z m256 0c-35.4 0-64 28.6-64 64s28.6 64 64 64 64-28.6 64-64-28.6-64-64-64z"  horiz-adv-x="1024" />

    
    <glyph glyph-name="cookie" unicode="&#61316;" d="M1020.77525 386.424678l-24.159778 152.5186a264.983568 264.983568 0 0 1-74.319318 145.89866l-109.518995 109.498995c-39.459638 39.439638-90.359171 65.3994-145.418665 74.09932l-153.398592 24.299777c-55.019495 8.71992-111.378978-0.219998-161.038521-25.519766L214.68265 796.800911a264.497572 264.497572 0 0 1-115.578939-115.598939l-70.199356-137.758736a265.201566 265.201566 0 0 1-25.639765-161.878514l24.159779-152.538599a264.983568 264.983568 0 0 1 74.319317-145.898661l109.518995-109.498995a264.171575 264.171575 0 0 1 145.418665-74.09932l153.398592-24.279777c55.019495-8.71992 111.378978 0.219998 161.038522 25.499766l138.238731 70.419354a264.601571 264.601571 0 0 1 115.578939 115.598939l70.199355 137.738735c25.419767 49.919542 34.399684 106.599021 25.639765 161.918514zM352.041389 160.006756c-35.339676 0-63.999413 28.659737-63.999413 63.999413s28.659737 63.999413 63.999413 63.999412 63.999413-28.659737 63.999412-63.999412-28.659737-63.999413-63.999412-63.999413z m63.999412 319.997063c-35.339676 0-63.999413 28.659737-63.999412 63.999412s28.659737 63.999413 63.999412 63.999413 63.999413-28.659737 63.999413-63.999413-28.659737-63.999413-63.999413-63.999412z m319.997063-255.99765c-35.339676 0-63.999413 28.659737-63.999413 63.999412s28.659737 63.999413 63.999413 63.999413 63.999413-28.659737 63.999412-63.999413-28.659737-63.999413-63.999412-63.999412z"  horiz-adv-x="1024" />

    
    <glyph glyph-name="cookie-bite" unicode="&#61317;" d="M1021.014705 384.374539c-139.936023 1.699952-252.932812 115.376721-252.932812 255.712734-140.336012 0-253.992782 112.976789-255.712733 252.892813-54.518451 8.279765-110.256867-0.599983-159.43547-25.639272l-138.256071-70.437998a264.434485 264.434485 0 0 1-115.576715-115.616714l-70.198005-137.756086a265.282461 265.282461 0 0 1-25.639272-161.895399l24.159314-152.535665a265.034468 265.034468 0 0 1 74.317888-145.915853l109.536887-109.516888a264.064496 264.064496 0 0 1 145.415868-74.117894l153.41564-24.299309c55.018436-8.719752 111.396834 0.219994 161.055423 25.519274l138.256071 70.417999a264.538482 264.538482 0 0 1 115.576716 115.616715l70.198005 137.756085c25.119286 49.2786 34.019033 105.157012 25.819266 159.815458zM351.993717 160.020915c-35.338996 0-63.998181 28.659186-63.998181 63.998181s28.659186 63.998181 63.998181 63.998182 63.998181-28.659186 63.998181-63.998182-28.659186-63.998181-63.998181-63.998181z m63.998181 319.990907c-35.338996 0-63.998181 28.659186-63.998181 63.998181s28.659186 63.998181 63.998181 63.998181 63.998181-28.659186 63.998182-63.998181-28.659186-63.998181-63.998182-63.998181z m319.990907-255.992726c-35.338996 0-63.998181 28.659186-63.998181 63.998182s28.659186 63.998181 63.998181 63.998181 63.998181-28.659186 63.998181-63.998181-28.659186-63.998181-63.998181-63.998182z"  horiz-adv-x="1024" />

    
    <glyph glyph-name="copy" unicode="&#61318;" d="M704 0v-80c0-26.51-21.49-48-48-48H112c-26.51 0-48 21.49-48 48V656c0 26.51 21.49 48 48 48h144v-592c0-61.758 50.242-112 112-112h336z m0 688V896H368c-26.51 0-48-21.49-48-48v-736c0-26.51 21.49-48 48-48h544c26.51 0 48 21.49 48 48V640H752c-26.4 0-48 21.6-48 48z m241.942 62.058L814.058 881.942A48 48 0 0 1 780.118 896H768v-192h192v12.118a48 48 0 0 1-14.058 33.94z"  horiz-adv-x="1024" />

    
    <glyph glyph-name="copyright" unicode="&#61319;" d="M512 880C238.066 880 16 657.934 16 384s222.066-496 496-496 496 222.066 496 496S785.934 880 512 880z m234.268-693.506c-3.184-3.734-79.552-91.462-219.702-91.462-169.384 0-288.968 126.52-288.968 291.134 0 162.606 124.008 286.802 287.524 286.802 133.914 0 203.93-74.63 206.844-77.808a24 24 0 0 0 2.476-29.246l-44.76-69.31c-8.098-12.534-25.548-14.702-36.468-4.59-0.466 0.428-53.058 47.76-123.76 47.76-92.232 0-147.832-67.15-147.832-152.164 0-79.204 51.028-159.384 148.554-159.384 77.394 0 130.56 56.676 131.088 57.25 10.264 11.13 28.118 10.066 37.016-2.106l49.094-67.144a24.002 24.002 0 0 0-1.106-29.732z"  horiz-adv-x="1024" />

    
    <glyph glyph-name="couch" unicode="&#61320;" d="M320 448v-128h640v128c0 70.6 57.4 128 128 128h64c0 106-86 192-192 192H320c-106 0-192-86-192-192h64c70.6 0 128-57.4 128-128z m832 64h-64c-35.4 0-64-28.6-64-64v-192H256v192c0 35.4-28.6 64-64 64H128c-70.6 0-128-57.4-128-128 0-47.2 26-88 64-110.2V32c0-17.6 14.4-32 32-32h128c17.6 0 32 14.4 32 32v32h768v-32c0-17.6 14.4-32 32-32h128c17.6 0 32 14.4 32 32V273.8c38 22.2 64 63 64 110.2 0 70.6-57.4 128-128 128z"  horiz-adv-x="1280" />

    
    <glyph glyph-name="crosshairs" unicode="&#61324;" d="M1000 448h-60.728C911.448 635.35 763.35 783.448 576 811.272V872c0 13.254-10.746 24-24 24h-80c-13.254 0-24-10.746-24-24v-60.728C260.65 783.448 112.552 635.35 84.728 448H24c-13.254 0-24-10.746-24-24v-80c0-13.254 10.746-24 24-24h60.728C112.552 132.65 260.65-15.448 448-43.272V-104c0-13.254 10.746-24 24-24h80c13.254 0 24 10.746 24 24v60.728C763.35-15.448 911.448 132.65 939.272 320H1000c13.254 0 24 10.746 24 24v80c0 13.254-10.746 24-24 24zM576 86.732V168c0 13.254-10.746 24-24 24h-80c-13.254 0-24-10.746-24-24v-81.268C331.652 111.536 239.566 203.514 214.732 320H296c13.254 0 24 10.746 24 24v80c0 13.254-10.746 24-24 24h-81.268C239.536 564.348 331.514 656.434 448 681.268V600c0-13.254 10.746-24 24-24h80c13.254 0 24 10.746 24 24v81.268C692.348 656.464 784.434 564.486 809.268 448H728c-13.254 0-24-10.746-24-24v-80c0-13.254 10.746-24 24-24h81.268C784.464 203.652 692.486 111.566 576 86.732zM576 384c0-35.346-28.654-64-64-64s-64 28.654-64 64c0 35.346 28.654 64 64 64s64-28.654 64-64z"  horiz-adv-x="1024" />

    
    <glyph glyph-name="desktop" unicode="&#61330;" d="M1056 896H96C43 896 0 853 0 800v-640c0-53 43-96 96-96h384l-32-96h-144c-26.6 0-48-21.4-48-48s21.4-48 48-48h544c26.6 0 48 21.4 48 48s-21.4 48-48 48h-144l-32 96h384c53 0 96 43 96 96V800c0 53-43 96-96 96z m-32-704H128V768h896v-576z"  horiz-adv-x="1152" />

    
    <glyph glyph-name="dove" unicode="&#61348;" d="M576.009025 561.613826v56.197676c-56.397668 72.596998-94.196105 158.593443-108.195527 250.389647-4.199826 26.998884-37.998429 37.598445-55.597701 16.599314-42.198255-49.797941-75.396883-108.195526-97.795956-172.992847 68.397172-76.596833 159.993385-129.194658 261.589184-150.19379zM799.999763 768.005292c-88.396345 0-159.993385-71.797031-159.993384-160.193376v-118.795088C431.215012 501.416315 254.022338 630.010998 174.025646 812.403457c-10.999545 24.998966-46.398082 26.398908-57.997602 1.799925C82.829417 744.006285 64.030194 665.609526 64.030194 582.81295c0-141.594145 68.19718-273.788679 170.192963-371.784628 26.398908-25.39895 52.197842-46.398082 77.796783-65.597288l-287.788101-71.997023C2.832724 68.034234-6.766879 43.23526 5.232625 24.636029 40.031186-29.161747 126.02763-120.357976 311.619957-127.957662c15.999338-0.599975 31.998677 5.199785 44.198172 15.799347l130.394609 112.195361H640.006379c176.79269 0 319.986769 142.994088 319.986769 319.786778V640.010585l63.997354 127.994707H799.999763z m0-192.192053c-17.599272 0-31.998677 14.399405-31.998677 31.998677s14.399405 31.998677 31.998677 31.998677 31.998677-14.399405 31.998677-31.998677-14.399405-31.998677-31.998677-31.998677z"  horiz-adv-x="1024" />

    
    <glyph glyph-name="ellipsis-h" unicode="&#61356;" d="M656 384c0-79.6-64.4-144-144-144s-144 64.4-144 144 64.4 144 144 144 144-64.4 144-144z m208 144c-79.6 0-144-64.4-144-144s64.4-144 144-144 144 64.4 144 144-64.4 144-144 144z m-704 0c-79.6 0-144-64.4-144-144s64.4-144 144-144 144 64.4 144 144-64.4 144-144 144z"  horiz-adv-x="1024" />

    
    <glyph glyph-name="ellipsis-v" unicode="&#61357;" d="M512 528c79.6 0 144-64.4 144-144s-64.4-144-144-144-144 64.4-144 144 64.4 144 144 144zM368 736c0-79.6 64.4-144 144-144s144 64.4 144 144S591.6 880 512 880 368 815.6 368 736z m0-704c0-79.6 64.4-144 144-144s144 64.4 144 144-64.4 144-144 144-144-64.4-144-144z"  horiz-adv-x="1024" />

    
    <glyph glyph-name="envelope" unicode="&#61358;" d="M1004.6 514.4c7.8 6.2 19.4 0.4 19.4-9.4V96c0-53-43-96-96-96H96c-53 0-96 43-96 96V504.8c0 10 11.4 15.6 19.4 9.4 44.8-34.8 104.2-79 308.2-227.2 42.2-30.8 113.4-95.6 184.4-95.2 71.4-0.6 144 65.6 184.6 95.2 204 148.2 263.2 192.6 308 227.4zM512 256c46.4-0.8 113.2 58.4 146.8 82.8 265.4 192.6 285.6 209.4 346.8 257.4 11.6 9 18.4 23 18.4 37.8v38c0 53-43 96-96 96H96C43 768 0 725 0 672v-38c0-14.8 6.8-28.6 18.4-37.8 61.2-47.8 81.4-64.8 346.8-257.4 33.6-24.4 100.4-83.6 146.8-82.8z"  horiz-adv-x="1024" />

    
    <glyph glyph-name="envelope-open" unicode="&#61359;" d="M1023.99768-32.000217c0-53.01988-42.979903-95.999783-95.999782-95.999783H95.999783c-53.01988 0-95.999783 42.979903-95.999783 95.999783V494.55059a95.999783 95.999783 0 0 0 36.773917 75.551828c49.825887 39.057912 91.001794 70.72984 328.399256 243.02145C398.823096 837.657812 465.592945 896.691678 511.99884 895.99168c46.395895 0.707998 113.191744-58.343868 146.825667-82.865812 237.373462-172.27361 278.605369-203.989538 328.399256-243.02345A95.999783 95.999783 0 0 0 1023.99768 494.55059V-32.000217z m-131.331702 393.209109c-5.125988 7.455983-15.399965 9.189979-22.677949 3.813991-45.689896-33.745924-110.923749-81.409816-211.163522-154.157651-33.649924-24.531944-100.419772-83.561811-146.825667-82.859812-46.421895-0.687998-113.117744 58.285868-146.825667 82.859812-100.227773 72.739835-165.467625 120.407727-211.163522 154.157651-7.277984 5.375988-17.55196 3.641992-22.677949-3.813991l-18.143958-26.391941a15.995964 15.995964 0 0 1 3.677991-21.93395c45.773896-33.797923 110.907749-81.379816 210.605523-153.735652 40.547908-29.561933 113.047744-95.625783 184.527582-95.145784 71.447838-0.483999 143.921674 65.541852 184.525582 95.145784 99.699774 72.357836 164.835627 119.939728 210.605523 153.735652a15.995964 15.995964 0 0 1 3.677991 21.93395l-18.141958 26.391941z"  horiz-adv-x="1024" />

    
    <glyph glyph-name="envelope-square" unicode="&#61360;" d="M864 832H160C106.98 832 64 789.02 64 736v-704c0-53.02 42.98-96 96-96h704c53.02 0 96 42.98 96 96V736c0 53.02-42.98 96-96 96zM420.234 371.792C238.858 503.426 240.706 503.758 192 541.666V592c0 26.51 21.49 48 48 48h544c26.51 0 48-21.49 48-48v-50.334c-48.742-37.938-46.868-38.248-228.234-169.876-21-15.31-62.784-52.24-91.766-51.788-29.006-0.436-70.734 36.454-91.766 51.79zM832 460.45V176c0-26.51-21.49-48-48-48H240c-26.51 0-48 21.49-48 48V460.45c27.916-21.588 66.658-50.472 190.606-140.428 28.324-20.682 75.95-64.29 129.388-64.02 53.774-0.268 102.074 44.082 129.44 64.05 123.916 89.93 162.65 118.812 190.566 140.398z"  horiz-adv-x="1024" />

    
    <glyph glyph-name="equals" unicode="&#61361;" d="M896 288H128c-35.34 0-64-28.66-64-64v-64c0-35.34 28.66-64 64-64h768c35.34 0 64 28.66 64 64v64c0 35.34-28.66 64-64 64z m0 384H128c-35.34 0-64-28.66-64-64v-64c0-35.34 28.66-64 64-64h768c35.34 0 64 28.66 64 64v64c0 35.34-28.66 64-64 64z"  horiz-adv-x="1024" />

    
    <glyph glyph-name="expand" unicode="&#61364;" d="M64 536V784c0 26.6 21.4 48 48 48h248c13.2 0 24-10.8 24-24v-80c0-13.2-10.8-24-24-24H192v-168c0-13.2-10.8-24-24-24H88c-13.2 0-24 10.8-24 24zM640 808v-80c0-13.2 10.8-24 24-24h168v-168c0-13.2 10.8-24 24-24h80c13.2 0 24 10.8 24 24V784c0 26.6-21.4 48-48 48H664c-13.2 0-24-10.8-24-24z m296-552h-80c-13.2 0-24-10.8-24-24v-168h-168c-13.2 0-24-10.8-24-24v-80c0-13.2 10.8-24 24-24h248c26.6 0 48 21.4 48 48V232c0 13.2-10.8 24-24 24zM384-40v80c0 13.2-10.8 24-24 24H192v168c0 13.2-10.8 24-24 24H88c-13.2 0-24-10.8-24-24v-248c0-26.6 21.4-48 48-48h248c13.2 0 24 10.8 24 24z"  horiz-adv-x="1024" />

    
    <glyph glyph-name="expand-arrows-alt" unicode="&#61365;" d="M960.1 208v-224c0-26.6-21.4-48-48-48h-224c-42.8 0-64.2 51.8-34 82l72.4 72.4L511.9 304.8 297.5 90.2 369.9 18c30.2-30.2 8.8-82-34-82H111.9c-26.6 0-48 21.4-48 48V208c0 42.8 51.8 64.2 82 34l72.4-72.4L432.9 384 218.3 598.6 145.9 526c-30.2-30.2-82-8.8-82 34V784c0 26.6 21.4 48 48 48h224c42.8 0 64.2-51.8 34-82l-72.4-72.4L511.9 463.2l214.6 214.6L654.1 750c-30.2 30.2-8.8 82 34 82h224c26.6 0 48-21.4 48-48v-224c0-42.8-51.8-64.2-82-34l-72.4 72.4L591.1 384l214.6-214.6 72.4 72.4c30.2 30.4 82 9 82-33.8z"  horiz-adv-x="1024" />

    
    <glyph glyph-name="exclamation-circle" unicode="&#61366;" d="M1008 384c0-273.994-222.086-496-496-496S16 110.006 16 384C16 657.834 238.086 880 512 880s496-222.166 496-496z m-496-100c-50.81 0-92-41.19-92-92s41.19-92 92-92 92 41.19 92 92-41.19 92-92 92z m-87.346 330.692l14.836-272c0.694-12.728 11.218-22.692 23.964-22.692h97.092c12.746 0 23.27 9.964 23.964 22.692l14.836 272c0.75 13.748-10.196 25.308-23.964 25.308h-126.766c-13.768 0-24.712-11.56-23.962-25.308z"  horiz-adv-x="1024" />

    
    <glyph glyph-name="fingerprint" unicode="&#61396;" d="M512.24 404.08c-26.5 0-48-21.48-48-48 2.28-144.5-16.28-283.8-55.4-423.1-5.46-19.44 4.3-60.98 46.24-60.98 20.96 0 40.22 13.84 46.18 35.04 27.06 95.82 62.08 250.82 58.96 449.04 0.02 26.5-21.46 48-47.98 48z m-1.72 163.46C388 567.68 302.5 473.4 304.2 365.36c1.5-95.88-7.5-191.82-26.74-285.1-5.38-25.96 11.34-51.38 37.28-56.72 26.1-5.34 51.34 11.32 56.72 37.28 20.68 100.18 30.34 203.16 28.74 306.04-0.82 51.9 39.84 104.98 108.9 104.68 62.62-0.94 114.3-50.68 115.24-110.94 1.54-96.1-5.62-192.66-21.22-287.1-4.34-26.12 13.38-50.84 39.52-55.16 39.94-6.66 53.62 30.2 55.16 39.54 16.56 100.06 24.12 202.42 22.54 304.22-1.76 111.6-95.88 203.76-209.82 205.44z m-221.38 39.56c-20.6 16.68-50.74 13.6-67.52-6.96-51.24-63-78.78-142.56-77.5-224 1.18-75.16-4.94-150.54-18.22-224.1-4.68-26.1 12.62-51.06 38.72-55.78 40.22-7 54.14 29.62 55.78 38.72 14.38 79.68 21 161.32 19.72 242.66-0.94 59.76 18.4 115.76 56 161.94 16.7 20.56 13.58 50.78-6.98 67.52z m218.94 124.66c-30.82 0.82-61.74-2.88-91.56-9.94-25.78-6.12-41.74-31.96-35.66-57.78 6.12-25.78 32-41.66 57.78-35.66 22.1 5.22 44.94 7.54 68 7.38 150.86-2.26 275.46-123 277.76-269.16 1.18-75.76-2.56-152.22-11.16-227.26-3-26.34 15.9-50.16 42.22-53.16 33.44-3.9 51.02 23.76 53.16 42.22a1858.12 1858.12 0 0 1 11.78 239.7c-3.12 197.5-170.14 360.66-372.32 363.66z m504.14-242.9c-5.72 25.84-31.02 42.4-57.22 36.54-25.88-5.72-42.24-31.32-36.52-57.22 9.42-42.82 9.82-74.82 9.4-123.2-0.22-26.54 21.1-48.18 47.6-48.4h0.4c26.34 0 47.78 21.22 48 47.6 0.36 44.36 0.8 88.22-11.66 144.68z m-80.24 181.44C834.58 809.08 675.2 893.42 505.62 895.96 366.04 897.64 236.94 846.18 140.92 750.12 48.18 657.26-1.8 533.92 0.28 402.7l-0.24-42.94c-0.78-26.5 20.06-48.62 46.56-49.38 0.46-0.04 0.96-0.04 1.44-0.04 25.84 0 47.18 20.6 47.94 46.6l0.32 47.28c-1.66 105 38.32 203.72 112.56 278 77.52 77.6 182.68 119.34 295.36 117.72 138.9-2.06 269.46-71.12 349.24-184.78 15.22-21.72 45.12-26.9 66.84-11.72 21.68 15.24 26.92 45.18 11.68 66.86z"  horiz-adv-x="1024" />

    
    <glyph glyph-name="genderless" unicode="&#61415;" d="M512 544c88.2 0 160-71.8 160-160s-71.8-160-160-160-160 71.8-160 160 71.8 160 160 160m0 128C353 672 224 543 224 384s129-288 288-288 288 129 288 288-129 288-288 288z"  horiz-adv-x="1024" />

    
    <glyph glyph-name="home" unicode="&#61463;" d="M976 270.6V-16c0-26.6-21.4-48-48-48H696c-13.2 0-24 10.8-24 24V184c0 13.2-10.8 24-24 24h-144c-13.2 0-24-10.8-24-24v-224c0-13.2-10.8-24-24-24H224c-26.6 0-48 21.4-48 48V270.6c0 7.2 3.2 14 8.8 18.6l376 309.6c8.8 7.2 21.6 7.2 30.6 0l376-309.6c5.4-4.6 8.6-11.4 8.6-18.6z m167.2 121.8L976 530.2V807.2c0 13.2-10.8 24-24 24h-112c-13.2 0-24-10.8-24-24V662l-179 147.4c-35.4 29.2-86.6 29.2-122 0L8.8 392.4c-10.2-8.4-11.6-23.6-3.2-33.8l51-62c8.4-10.2 23.6-11.6 33.8-3.2l470.4 387.4c8.8 7.2 21.6 7.2 30.6 0l470.4-387.4c10.2-8.4 25.4-7 33.8 3.2l51 62c8.4 10.4 6.8 25.4-3.4 33.8z"  horiz-adv-x="1152" />

    
    <glyph glyph-name="key" unicode="&#61485;" d="M1024 543.998C1024 349.594 866.404 192 672 192c-22.44 0-44.38 2.124-65.654 6.138l-48.024-54.028A47.998 47.998 0 0 0 522.446 128H448v-80c0-26.51-21.49-48-48-48h-80v-80c0-26.51-21.49-48-48-48H48c-26.51 0-48 21.49-48 48v156.118c0 12.73 5.058 24.94 14.058 33.942l323.604 323.604C326.216 468.372 320 505.458 320 544 320 738.404 477.594 895.998 671.998 896 866.976 896.002 1024 738.978 1024 543.998zM672 640c0-53.02 42.98-96 96-96s96 42.98 96 96-42.98 96-96 96-96-42.98-96-96z"  horiz-adv-x="1024" />

    
    <glyph glyph-name="list" unicode="&#61496;" d="M256 664V744c0 17.674 14.326 32 32 32h704c17.674 0 32-14.326 32-32v-80c0-17.674-14.326-32-32-32H288c-17.674 0-32 14.326-32 32z m32-352h704c17.674 0 32 14.326 32 32v80c0 17.674-14.326 32-32 32H288c-17.674 0-32-14.326-32-32v-80c0-17.674 14.326-32 32-32z m0-320h704c17.674 0 32 14.326 32 32v80c0 17.674-14.326 32-32 32H288c-17.674 0-32-14.326-32-32v-80c0-17.674 14.326-32 32-32zM32 608h128c17.674 0 32 14.326 32 32V768c0 17.674-14.326 32-32 32H32C14.326 800 0 785.674 0 768v-128c0-17.674 14.326-32 32-32z m0-320h128c17.674 0 32 14.326 32 32v128c0 17.674-14.326 32-32 32H32c-17.674 0-32-14.326-32-32v-128c0-17.674 14.326-32 32-32z m0-320h128c17.674 0 32 14.326 32 32v128c0 17.674-14.326 32-32 32H32c-17.674 0-32-14.326-32-32v-128c0-17.674 14.326-32 32-32z"  horiz-adv-x="1024" />

    
    <glyph glyph-name="list-ul" unicode="&#61497;" d="M192 704c0-53.02-42.98-96-96-96S0 650.98 0 704s42.98 96 96 96 96-42.98 96-96zM96 480c-53.02 0-96-42.98-96-96s42.98-96 96-96 96 42.98 96 96-42.98 96-96 96z m0-320c-53.02 0-96-42.98-96-96s42.98-96 96-96 96 42.98 96 96-42.98 96-96 96z m192 472h704c17.674 0 32 14.326 32 32V744c0 17.674-14.326 32-32 32H288c-17.674 0-32-14.326-32-32v-80c0-17.674 14.326-32 32-32z m0-320h704c17.674 0 32 14.326 32 32v80c0 17.674-14.326 32-32 32H288c-17.674 0-32-14.326-32-32v-80c0-17.674 14.326-32 32-32z m0-320h704c17.674 0 32 14.326 32 32v80c0 17.674-14.326 32-32 32H288c-17.674 0-32-14.326-32-32v-80c0-17.674 14.326-32 32-32z"  horiz-adv-x="1024" />

    
    <glyph glyph-name="list-ol" unicode="&#61498;" d="M6.526 616.946c0 14.954 7.834 23.144 23.146 23.144h30.262V719.844c0 10.326 1.068 21.006 1.068 21.006h-0.712s-3.558-5.34-5.696-7.476c-8.902-8.546-21.008-8.902-31.332 2.136l-11.036 12.462c-10.684 10.682-9.968 22.432 1.068 32.758l43.44 39.876C65.63 828.796 73.464 832 85.57 832H109.78c15.312 0 23.498-7.832 23.498-23.144v-168.768h30.976c15.31 0 23.144-8.188 23.144-23.144v-17.802c0-14.954-7.834-23.144-23.144-23.144H29.672c-15.312 0-23.146 8.19-23.146 23.144v17.804zM4.422 286.818c0 94.556 101.91 112.766 101.91 138.33 0 14.36-11.908 17.51-18.56 17.51-6.306 0-12.958-2.102-18.91-7.704-10.158-9.806-21.014-14.008-32.222-4.902l-17.158 13.658c-11.558 9.106-14.36 19.61-5.606 30.818C27.184 492.038 52.05 512 94.774 512c38.874 0 88.952-21.012 88.952-79.146 0-76.694-93.506-92.804-97.358-113.818h78.098c15.058 0 23.114-8.054 23.114-22.764v-17.51c0-14.708-8.056-22.764-23.114-22.764h-135.88c-14.01 0-24.166 8.056-24.166 22.764v8.056zM11.308-13.22l11.206 18.56c7.706 13.308 18.21 14.008 31.168 6.304 9.806-4.202 19.26-6.304 28.718-6.304 20.31 0 28.716 7.004 28.716 16.46 0 13.308-11.208 18.212-31.868 18.212h-9.456c-11.908 0-18.56 4.202-24.516 15.76l-2.1 3.852c-4.902 9.456-2.452 19.612 5.602 29.768l11.208 14.008c13.658 16.81 24.514 26.966 24.514 26.966v0.7s-8.406-2.102-25.216-2.102H33.37c-15.06 0-22.766 8.056-22.766 22.764v17.51c0 15.06 7.706 22.764 22.766 22.764h116.968c15.058 0 22.764-8.054 22.764-22.764v-6.654c0-11.556-2.802-19.612-10.158-28.366l-35.018-40.274c39.222-10.156 57.432-40.974 57.432-69.69 0-42.726-28.716-88.252-97.006-88.252-33.272 0-56.384 9.456-71.792 18.91-11.558 8.404-12.608 19.61-5.252 31.868zM288 632h704c17.674 0 32 14.326 32 32V744c0 17.674-14.326 32-32 32H288c-17.674 0-32-14.326-32-32v-80c0-17.674 14.326-32 32-32z m0-320h704c17.674 0 32 14.326 32 32v80c0 17.674-14.326 32-32 32H288c-17.674 0-32-14.326-32-32v-80c0-17.674 14.326-32 32-32z m0-320h704c17.674 0 32 14.326 32 32v80c0 17.674-14.326 32-32 32H288c-17.674 0-32-14.326-32-32v-80c0-17.674 14.326-32 32-32z"  horiz-adv-x="1024" />

    
    <glyph glyph-name="male" unicode="&#61503;" d="M512 896c70.692 0 128-57.308 128-128s-57.308-128-128-128-128 57.308-128 128S441.308 896 512 896m96-288h-22.72c-45.422-20.886-99.18-21.788-146.56 0H416c-53.02 0-96-42.98-96-96v-272c0-26.51 21.49-48 48-48h32v-272c0-26.51 21.49-48 48-48h128c26.51 0 48 21.49 48 48V192h32c26.51 0 48 21.49 48 48V512c0 53.02-42.98 96-96 96z"  horiz-adv-x="1024" />

    
    <glyph glyph-name="map-marked" unicode="&#61504;" d="M576 896c-139.18 0-252-112.82-252-252 0-112.52 164.7-317.6 227.8-392.04 12.78-15.08 35.64-15.08 48.4 0C663.3 326.4 828 531.48 828 644 828 783.18 715.18 896 576 896zM40.24 464.1A64.012 64.012 0 0 1 0 404.68v-500.64c0-22.64 22.86-38.12 43.88-29.72L320 0V466.16c-17.68 31.96-32.14 63.08-42.5 92.84L40.24 464.1zM576 176.66c-28.14 0-54.76 12.36-73.02 33.92-39.32 46.4-81.14 99.24-118.98 153.44v-364l384-128V364c-37.84-54.18-79.64-107.04-118.98-153.44-18.26-21.54-44.88-33.9-73.02-33.9z m532.12 397.02L832 448v-576l279.76 111.9A63.992 63.992 0 0 1 1152 43.32V543.96c0 22.64-22.86 38.12-43.88 29.72z"  horiz-adv-x="1152" />

    
    <glyph glyph-name="map-marked-alt" unicode="&#61505;" d="M576 896c-139.18 0-252-112.82-252-252 0-112.52 164.7-317.6 227.8-392.04 12.78-15.08 35.64-15.08 48.4 0C663.3 326.4 828 531.48 828 644 828 783.18 715.18 896 576 896z m0-336c-46.4 0-84 37.6-84 84s37.6 84 84 84 84-37.6 84-84-37.6-84-84-84zM40.24 464.1A64.012 64.012 0 0 1 0 404.68v-500.64c0-22.64 22.86-38.12 43.88-29.72L320 0V466.16c-17.68 31.96-32.14 63.08-42.5 92.84L40.24 464.1zM576 176.66c-28.14 0-54.76 12.36-73.02 33.92-39.32 46.4-81.14 99.24-118.98 153.44v-364l384-128V364c-37.84-54.18-79.64-107.04-118.98-153.44-18.26-21.54-44.88-33.9-73.02-33.9z m532.12 397.02L832 448v-576l279.76 111.9A63.992 63.992 0 0 1 1152 43.32V543.96c0 22.64-22.86 38.12-43.88 29.72z"  horiz-adv-x="1152" />

    
    <glyph glyph-name="play-circle" unicode="&#61567;" d="M512 880C238 880 16 658 16 384s222-496 496-496 496 222 496 496S786 880 512 880z m231.4-544l-352-202c-31.6-17.6-71.4 5-71.4 42V592c0 36.8 39.6 59.6 71.4 42l352-214c32.8-18.4 32.8-65.8 0-84z"  horiz-adv-x="1024" />

    
    <glyph glyph-name="redo" unicode="&#61588;" d="M1000.666 896h-94.822c-13.706 0-24.628-11.458-23.972-25.148l7.932-165.518C798.832 812.202 663.344 880 512.002 880 238.68 880 15.798 656.948 16 383.626 16.202 109.864 238.192-112 512-112c127.852 0 244.404 48.374 332.356 127.816 10.226 9.236 10.708 25.122 0.964 34.866l-67.942 67.942c-8.932 8.932-23.28 9.434-32.76 1.086C682.616 65.104 601.212 32 512 32c-194.534 0-352 157.432-352 352 0 194.534 157.432 352 352 352 121.784 0 229.012-61.716 292.198-155.6l-203.05 9.73c-13.69 0.656-25.148-10.266-25.148-23.972v-94.822c0-13.254 10.746-24 24-24h400.666c13.254 0 24 10.746 24 24V872c0 13.254-10.746 24-24 24z"  horiz-adv-x="1024" />

    
    <glyph glyph-name="redo-alt" unicode="&#61589;" d="M512.91 880c132.538-0.238 252.874-52.466 341.718-137.37l71.43 71.43C956.298 844.298 1008 822.882 1008 780.118V512c0-26.51-21.49-48-48-48H691.882c-42.764 0-64.18 51.702-33.942 81.942l83.5 83.5c-61.728 57.798-141.602 89.814-226.46 90.546-184.796 1.596-340.566-147.954-338.968-338.884C177.528 199.982 324.368 48 512 48c82.254 0 159.994 29.356 221.258 83.112 9.486 8.322 23.812 7.816 32.736-1.106l79.324-79.324c9.744-9.744 9.262-25.63-0.964-34.866C756.404-63.626 639.852-112 512-112 238.068-112 16.002 110.066 16 383.996 15.998 657.614 239.292 880.49 512.91 880z"  horiz-adv-x="1024" />

    
    <glyph glyph-name="rocket" unicode="&#61595;" d="M1010.176376 857.801811C1007.576499 870.001233 997.976954 879.600778 985.777533 882.200654 921.380586 896 870.982976 896 820.785357 896 614.395144 896 490.601015 785.605235 398.205396 640.012139H189.815279c-36.398274 0-69.5967-20.599023-85.795932-52.997486L5.224032 389.424023c-15.999241-31.998483 7.199659-69.396709 42.997961-69.396709h190.190981c-11.79944-25.598786-23.798871-50.997582-35.998293-75.396425-6.199706-12.399412-3.79982-27.19871 5.999716-36.998245l127.193968-127.193969c9.799535-9.799535 24.598833-12.199421 36.998245-5.999715 24.398843 12.199421 49.797639 23.998862 75.396425 35.798302V-79.953718c0-35.598312 37.598217-58.797212 69.396709-42.997961l197.390639 98.795315c32.598454 16.199232 52.997487 49.597648 52.997487 85.795931V270.429666c145.193115 92.595609 255.987861 216.789719 255.987861 422.179979 0.199991 50.39761 0.199991 100.79522-13.599355 165.192166zM799.986343 576.015174c-52.997487 0-95.995448 42.997961-95.995448 95.995448s42.997961 95.995448 95.995448 95.995448 95.995448-42.997961 95.995448-95.995448-42.997961-95.995448-95.995448-95.995448z"  horiz-adv-x="1024" />

    
    <glyph glyph-name="search" unicode="&#61608;" d="M1009.938827 10.686456L810.558298 210.066986c-8.999121 8.999121-21.19793 13.998633-33.99668 13.998633H743.964801c55.19461 70.593106 87.991407 159.384435 87.991407 255.975002C831.956208 709.818182 645.77439 896 415.996829 896S0.03745 709.818182 0.03745 480.040621s186.181818-415.959379 415.959379-415.959379c96.590567 0 185.381896 32.796797 255.975002 87.991407v-32.596817c0-12.79875 4.999512-24.997559 13.998633-33.99668l199.38053-199.380529c18.798164-18.798164 49.195196-18.798164 67.793379 0l56.594473 56.594473c18.798164 18.798164 18.798164 49.195196 0.199981 67.99336zM415.996829 224.065619c-141.386193 0-255.975002 114.388829-255.975002 255.975002 0 141.386193 114.388829 255.975002 255.975002 255.975002 141.386193 0 255.975002-114.388829 255.975002-255.975002 0-141.386193-114.388829-255.975002-255.975002-255.975002z"  horiz-adv-x="1024" />

    
    <glyph glyph-name="search-minus" unicode="&#61609;" d="M607.965631 512.037496v-63.99375c0-13.198711-10.798945-23.997656-23.997657-23.997657H248.000784c-13.198711 0-23.997656 10.798945-23.997657 23.997657v63.99375c0 13.198711 10.798945 23.997656 23.997657 23.997657h335.96719c13.198711 0 23.997656-10.798945 23.997657-23.997657z m401.960746-569.3444L953.331904-113.901377c-18.798164-18.798164-49.195196-18.798164-67.79338 0L685.958014 85.479152c-8.999121 8.999121-13.998633 21.19793-13.998633 33.99668V152.072649c-70.593106-55.19461-159.384435-87.991407-255.975002-87.991407C186.206818 64.081242 0.025 250.26306 0.025 480.040621S186.206818 896 415.984379 896s415.959379-186.181818 415.959379-415.959379c0-96.590567-32.796797-185.381896-87.991407-255.975002h32.596817c12.79875 0 24.997559-4.999512 33.99668-13.998633l199.380529-199.38053c18.598184-18.798164 18.598184-49.195196 0-67.99336zM687.957819 480.040621c0 150.385314-121.588126 271.97344-271.97344 271.97344S144.010939 630.425935 144.010939 480.040621s121.588126-271.97344 271.97344-271.97344 271.97344 121.588126 271.97344 271.97344z"  horiz-adv-x="1024" />

    
    <glyph glyph-name="search-plus" unicode="&#61610;" d="M607.965631 512.037496v-63.99375c0-13.198711-10.798945-23.997656-23.997657-23.997657h-111.989063v-111.989063c0-13.198711-10.798945-23.997656-23.997657-23.997657h-63.99375c-13.198711 0-23.997656 10.798945-23.997657 23.997657v111.989063h-111.989063c-13.198711 0-23.997656 10.798945-23.997657 23.997657v63.99375c0 13.198711 10.798945 23.997656 23.997657 23.997657h111.989063v111.989063c0 13.198711 10.798945 23.997656 23.997657 23.997657h63.99375c13.198711 0 23.997656-10.798945 23.997657-23.997657v-111.989063h111.989063c13.198711 0 23.997656-10.798945 23.997657-23.997657z m401.960746-569.3444L953.331904-113.901377c-18.798164-18.798164-49.195196-18.798164-67.79338 0L685.958014 85.479152c-8.999121 8.999121-13.998633 21.19793-13.998633 33.99668V152.072649c-70.593106-55.19461-159.384435-87.991407-255.975002-87.991407C186.206818 64.081242 0.025 250.26306 0.025 480.040621S186.206818 896 415.984379 896s415.959379-186.181818 415.959379-415.959379c0-96.590567-32.796797-185.381896-87.991407-255.975002h32.596817c12.79875 0 24.997559-4.999512 33.99668-13.998633l199.380529-199.38053c18.598184-18.798164 18.598184-49.195196 0-67.99336zM687.957819 480.040621c0 150.385314-121.588126 271.97344-271.97344 271.97344S144.010939 630.425935 144.010939 480.040621s121.588126-271.97344 271.97344-271.97344 271.97344 121.588126 271.97344 271.97344z"  horiz-adv-x="1024" />

    
    <glyph glyph-name="smoking" unicode="&#61634;" d="M1264 192h-96c-8.8 0-16-7.2-16-16v-288c0-8.8 7.2-16 16-16h96c8.8 0 16 7.2 16 16V176c0 8.8-7.2 16-16 16zM1106.6 721.8c-11.4 7.6-18.6 20-18.6 33.6V880c0 8.8-7.2 16-16 16h-96c-8.8 0-16-7.2-16-16v-124.6c0-44 20.4-86.8 57.2-110.8 84.4-54.6 134.8-147.6 134.8-248V336c0-8.8 7.2-16 16-16h96c8.8 0 16 7.2 16 16v60.6c0 131-64.8 252.4-173.4 325.2zM864 192H96c-53 0-96-43-96-96v-128c0-53 43-96 96-96h768c17.6 0 32 14.4 32 32V160c0 17.6-14.4 32-32 32z m-64-224H448v128h352v-128z m175.4 644.8C927.6 646 896 697.4 896 755.4V880c0 8.8-7.2 16-16 16h-96c-8.8 0-16-7.2-16-16v-132.8c0-87.4 49.2-163.2 120.6-213.4 44.8-31.4 71.4-82.4 71.4-137.2V336c0-8.8 7.2-16 16-16h96c8.8 0 16 7.2 16 16v60.6c0 86.6-42 166.8-112.6 216.2zM1072 192h-96c-8.8 0-16-7.2-16-16v-288c0-8.8 7.2-16 16-16h96c8.8 0 16 7.2 16 16V176c0 8.8-7.2 16-16 16z"  horiz-adv-x="1280" />

    
    <glyph glyph-name="smoking-ban" unicode="&#61635;" d="M192 288c0-17.6 14.4-32 32-32h235l-192 192H224c-17.6 0-32-14.4-32-32v-128zM512 896C229.2 896 0 666.8 0 384s229.2-512 512-512 512 229.2 512 512S794.8 896 512 896z m0-896c-211.8 0-384 172.2-384 384 0 82.8 26.6 159.4 71.4 222.2l534.8-534.8C671.4 26.6 594.8 0 512 0z m90.4 384H768v-64h-101.6l-64 64z m222.2-222.2L730.4 256H800c17.6 0 32 14.4 32 32v128c0 17.6-14.4 32-32 32H538.4L289.8 696.6C352.6 741.4 429.2 768 512 768c211.8 0 384-172.2 384-384 0-82.8-26.6-159.4-71.4-222.2zM641.2 640c-31.2 0-57.2 22.4-62.8 51.8-1.4 7.2-8 12.2-15.4 12.2h-32.4c-10 0-17.4-9-16-18.8 9.2-61.8 62.4-109.2 126.6-109.2 31.2 0 57.2-22.4 62.8-51.8 1.4-7.2 8-12.2 15.4-12.2h32.4c10 0 17.4 9 16 18.8-9.2 61.8-62.4 109.2-126.6 109.2z"  horiz-adv-x="1024" />

    
    <glyph glyph-name="sort-alpha-down" unicode="&#61638;" d="M438.59607 105.372l-159.968-160.004c-12.496-12.494-32.766-12.49-45.254 0L73.41007 105.372C53.27007 125.512 67.61407 160 96.03807 160H192.00007V800c0 17.674 14.326 32 32 32h64c17.674 0 32-14.326 32-32v-640h95.968c28.482 0 42.726-34.528 22.628-54.628z m238.15 360.014A24 24 0 0 0 653.67607 448h-71.434c-16.44 0-28.014 16.156-22.724 31.722l114.192 336A24 24 0 0 0 696.43407 832h79.132c10.278 0 19.416-6.546 22.724-16.278l114.192-336C917.77207 464.156 906.20007 448 889.75807 448h-71.47a24 24 0 0 0-23.03 17.244l-16.602 56.598h-85.726l-16.184-56.456z m45.714 157.394h26.734l-13.2 45.874-13.534-45.874z m25.15-574.646l134.902 191.396a24 24 0 0 1 4.384 13.826V296c0 13.254-10.746 24-24 24H613.04407c-13.254 0-24-10.746-24-24v-57.86c0-13.254 10.746-24 24-24h112.938c-1.478-1.982-2.994-4.072-4.54-6.266l-134.406-190.41a24.002 24.002 0 0 1-4.392-13.84V-40c0-13.254 10.746-24 24-24h258.71c13.254 0 24 10.746 24 24v57.86c0 13.254-10.746 24-24 24h-122.292c1.48 1.986 3 4.078 4.548 6.274z"  horiz-adv-x="1024" />

    
    <glyph glyph-name="sort-amount-down" unicode="&#61639;" d="M374.59614 105.372l-159.968-160.004c-12.496-12.494-32.766-12.49-45.254 0L9.41014 105.372C-10.72986 125.512 3.61414 160 32.03814 160H128.00014V800c0 17.674 14.326 32 32 32h64c17.674 0 32-14.326 32-32v-640h95.968c28.482 0 42.726-34.528 22.628-54.628zM480.00014 704h512c17.674 0 32 14.326 32 32V800c0 17.674-14.326 32-32 32H480.00014c-17.674 0-32-14.326-32-32v-64c0-17.674 14.326-32 32-32z m-32-224v64c0 17.674 14.326 32 32 32h384c17.674 0 32-14.326 32-32v-64c0-17.674-14.326-32-32-32H480.00014c-17.674 0-32 14.326-32 32z m0-512v64c0 17.674 14.326 32 32 32h128c17.674 0 32-14.326 32-32v-64c0-17.674-14.326-32-32-32h-128c-17.674 0-32 14.326-32 32z m0 256v64c0 17.674 14.326 32 32 32h256c17.674 0 32-14.326 32-32v-64c0-17.674-14.326-32-32-32H480.00014c-17.674 0-32 14.326-32 32z"  horiz-adv-x="1024" />

    
    <glyph glyph-name="sort-amount-up" unicode="&#61640;" d="M9.404 662.628l159.968 160.004c12.496 12.494 32.766 12.49 45.254 0l159.962-160.004c20.14-20.14 5.798-54.628-22.628-54.628H256v-640c0-17.674-14.326-32-32-32H160c-17.674 0-32 14.326-32 32V608H32.032c-28.482 0-42.726 34.528-22.628 54.628zM480 704h512c17.674 0 32 14.326 32 32V800c0 17.674-14.326 32-32 32H480c-17.674 0-32-14.326-32-32v-64c0-17.674 14.326-32 32-32z m-32-224v64c0 17.674 14.326 32 32 32h384c17.674 0 32-14.326 32-32v-64c0-17.674-14.326-32-32-32H480c-17.674 0-32 14.326-32 32z m0-512v64c0 17.674 14.326 32 32 32h128c17.674 0 32-14.326 32-32v-64c0-17.674-14.326-32-32-32h-128c-17.674 0-32 14.326-32 32z m0 256v64c0 17.674 14.326 32 32 32h256c17.674 0 32-14.326 32-32v-64c0-17.674-14.326-32-32-32H480c-17.674 0-32 14.326-32 32z"  horiz-adv-x="1024" />

    
    <glyph glyph-name="sort-down" unicode="&#61641;" d="M274 320h476c42.8 0 64.2-51.8 34-82L546 0c-18.8-18.8-49.2-18.8-67.8 0L240 238c-30.2 30.2-8.8 82 34 82z"  horiz-adv-x="1024" />

    
    <glyph glyph-name="stop-circle" unicode="&#61660;" d="M512 880C238 880 16 658 16 384s222-496 496-496 496 222 496 496S786 880 512 880z m192-656c0-17.6-14.4-32-32-32H352c-17.6 0-32 14.4-32 32V544c0 17.6 14.4 32 32 32h320c17.6 0 32-14.4 32-32v-320z"  horiz-adv-x="1024" />

    
    <glyph glyph-name="sync-alt" unicode="&#61676;" d="M741.44 629.44C678.916 687.984 597.776 720.076 511.696 720c-154.916-0.136-288.656-106.356-325.582-253.7-2.688-10.726-12.244-18.3-23.302-18.3H48.206c-14.996 0-26.388 13.614-23.614 28.352C67.866 706.152 269.626 880 512 880c132.896 0 253.582-52.272 342.63-137.37L926.06 814.06C956.298 844.298 1008 822.882 1008 780.118V512c0-26.51-21.49-48-48-48H691.882c-42.764 0-64.18 51.702-33.942 81.942l83.5 83.498zM64 304h268.118c42.764 0 64.18-51.702 33.942-81.942l-83.5-83.5c62.524-58.546 143.67-90.638 229.752-90.56 154.836 0.14 288.63 106.288 325.574 253.698 2.688 10.726 12.244 18.3 23.302 18.3h114.608c14.996 0 26.388-13.614 23.614-28.352C956.134 61.848 754.374-112 512-112c-132.896 0-253.582 52.272-342.63 137.37L97.94-46.06C67.702-76.298 16-54.882 16-12.118V256c0 26.51 21.49 48 48 48z"  horiz-adv-x="1024" />

    
    <glyph glyph-name="toggle-off" unicode="&#61710;" d="M768 768H384C171.922 768 0 596.078 0 384s171.922-384 384-384h384c212.078 0 384 171.922 384 384S980.078 768 768 768zM128 384c0 141.482 114.498 256 256 256 141.482 0 256-114.498 256-256 0-141.482-114.498-256-256-256-141.482 0-256 114.498-256 256z m640-256h-97.81c130.434 145.716 130.472 366.24 0 512H768c141.482 0 256-114.498 256-256 0-141.48-114.498-256-256-256z"  horiz-adv-x="1152" />

    
    <glyph glyph-name="toggle-on" unicode="&#61711;" d="M1152 384c0-212.078-171.922-384-384-384H384C171.922 0 0 171.922 0 384S171.922 768 384 768h384c212.078 0 384-171.922 384-384zM768 640c-141.482 0-256-114.498-256-256 0-141.482 114.498-256 256-256 141.482 0 256 114.498 256 256 0 141.482-114.498 256-256 256"  horiz-adv-x="1152" />

    
    <glyph glyph-name="upload" unicode="&#61738;" d="M592 128h-160c-26.6 0-48 21.4-48 48V512h-175.4c-35.6 0-53.4 43-28.2 68.2L484.6 884.6c15 15 39.6 15 54.6 0l304.4-304.4c25.2-25.2 7.4-68.2-28.2-68.2H640v-336c0-26.6-21.4-48-48-48z m432 16v-224c0-26.6-21.4-48-48-48H48c-26.6 0-48 21.4-48 48V144c0 26.6 21.4 48 48 48h272v-16c0-61.8 50.2-112 112-112h160c61.8 0 112 50.2 112 112v16h272c26.6 0 48-21.4 48-48z m-248-176c0 22-18 40-40 40s-40-18-40-40 18-40 40-40 40 18 40 40z m128 0c0 22-18 40-40 40s-40-18-40-40 18-40 40-40 40 18 40 40z"  horiz-adv-x="1024" />

    
    <glyph glyph-name="user" unicode="&#61739;" d="M512 384c141.4 0 256 114.6 256 256S653.4 896 512 896 256 781.4 256 640s114.6-256 256-256z m179.2-64h-33.4c-44.4-20.4-93.8-32-145.8-32s-101.2 11.6-145.8 32h-33.4C184.4 320 64 199.6 64 51.2V-32c0-53 43-96 96-96h704c53 0 96 43 96 96v83.2c0 148.4-120.4 268.8-268.8 268.8z"  horiz-adv-x="1024" />

    
    <glyph glyph-name="user-alt" unicode="&#61740;" d="M512 320c159 0 288 129 288 288S671 896 512 896 224 767 224 608s129-288 288-288z m256-64h-110.2c-44.4-20.4-93.8-32-145.8-32s-101.2 11.6-145.8 32H256C114.6 256 0 141.4 0 0v-32c0-53 43-96 96-96h832c53 0 96 43 96 96v32c0 141.4-114.6 256-256 256z"  horiz-adv-x="1024" />

    
    <glyph glyph-name="user-alt-slash" unicode="&#61741;" d="M1267.6-20.2L779.2 357.4C867.6 406.6 928 499.8 928 608 928 767 799 896 640 896c-134.2 0-246-92.2-278-216.4L91 889.2C77 900 57 897.6 46 883.6L6.8 833.2c-10.8-14-8.4-34 5.6-44.8l1176.8-909.4c14-10.8 34-8.4 45 5.6l39.2 50.6c10.8 13.6 8.2 33.8-5.8 44.6zM396.8 256C248.4 256 128 135.6 128-12.8v-19.2c0-53 43-96 96-96h764.4L491.6 256h-94.8z"  horiz-adv-x="1280" />

    
    </font>
</defs>
</svg>
